<?xml version="1.0" standalone="no"?>
<!DOCTYPE svg PUBLIC "-//W3C//DTD SVG 1.1//EN" "http://www.w3.org/Graphics/SVG/1.1/DTD/svg11.dtd" >
<svg xmlns="http://www.w3.org/2000/svg" xmlns:xlink="http://www.w3.org/1999/xlink" version="1.1">
<metadata></metadata>
<defs>
<font id="cherylhand" horiz-adv-x="847" >
<font-face units-per-em="2048" ascent="1638" descent="-410" />
<missing-glyph horiz-adv-x="784" />
<glyph horiz-adv-x="0" />
<glyph horiz-adv-x="682" />
<glyph horiz-adv-x="974" d="M35 604q0 -45 25.5 -52t64.5 -7q53 0 89 24.5t36 83.5q0 14 -10.5 31.5t-24.5 32t-30.5 25t-30.5 14.5q-23 4 -43.5 -14.5t-38 -44t-27.5 -52.5t-10 -41zM37 57q0 -43 13 -70.5t67 -27.5q14 0 42.5 33t70.5 81t95.5 105.5t117 105.5t135 80.5t149.5 32.5q27 0 44 -16 t26.5 -39t13.5 -50.5t4 -47.5q0 -14 1 -52t1 -81q0 -41 -1 -79t-1 -52q12 -29 27.5 -35t38.5 -6q8 0 28.5 2t20.5 18v455q0 33 -17.5 58.5t-43 41.5t-55.5 25.5t-54 9.5q-39 0 -108.5 -26.5t-149.5 -70.5t-163 -98.5t-149.5 -109t-109.5 -104.5t-43 -83zM473 803 q0 -29 15.5 -49.5t39 -32.5t50 -18.5t49.5 -6.5q25 0 41 5.5t16 33.5q0 49 -38 84t-85 35q-12 0 -26.5 -1t-28.5 -6t-23.5 -15.5t-9.5 -28.5z" />
<glyph unicode=" "  horiz-adv-x="784" />
<glyph unicode="&#x09;" horiz-adv-x="784" />
<glyph unicode="&#xa0;" horiz-adv-x="784" />
<glyph unicode="!" horiz-adv-x="321" d="M41 965q0 -66 2 -150t9 -174t23.5 -165t41 -123t63.5 -48q16 0 32.5 4t16.5 25v10q0 2 -3 10t-6 18.5t-6 18.5t-3 10q-2 12 -5 40t-6 57.5t-5 55.5t-2 36q0 18 -1.5 56t-1.5 87v101v102t1.5 87t1.5 56q-6 35 -38 56.5t-67 21.5q-12 0 -27.5 -2t-19.5 -18v-76v-96zM115 43 q0 -16 8 -35.5t22.5 -36t31 -29t34.5 -12.5t34.5 12.5t30 29t21.5 36t8 35.5q0 20 -15.5 34.5t-37 24t-44 14.5t-36.5 5q-29 0 -43 -26.5t-14 -51.5z" />
<glyph unicode="&#x22;" horiz-adv-x="462" d="M27 1511q0 -96 52 -169.5t120 -133.5l75 76q29 -16 48.5 -18t48.5 -2q25 0 41 5t16 34q0 4 -1 11l-1 7q0 2 -6 10t-13.5 18.5t-13.5 18.5t-6 10q-6 25 -8 69t-9.5 88t-25.5 77t-59 33q-43 0 -55.5 -32t-12.5 -75q0 -27 10.5 -51.5t10.5 -52.5v-21q0 -12 -2.5 -24.5 t-8.5 -21.5t-18 -9q-37 0 -46 29.5t-15.5 66.5t-20.5 66.5t-59 29.5q-41 0 -41 -39z" />
<glyph unicode="#" horiz-adv-x="1040" d="M12 465q0 -35 21.5 -38t50.5 -3q31 0 57.5 12.5t51 27.5t50 27.5t54.5 12.5q25 0 51.5 -14.5t26.5 -43.5q0 -66 -17.5 -104.5t-42 -61t-55.5 -33.5t-55.5 -21.5t-42 -24t-17.5 -41.5q0 -29 24 -52.5t52 -23.5q20 0 35.5 9t30 20.5t31 20.5t36.5 9q4 0 11.5 -8t9.5 -12 l55 -189q2 0 13.5 -2t17.5 -2q10 0 25.5 3.5t29.5 9.5t22.5 18t6.5 31q0 4 -6.5 20.5t-13.5 35t-13 35.5t-6 21t-1 29t-1 35q0 43 15.5 66.5t72.5 23.5q33 0 38 -32.5t7 -72.5t13.5 -73t56.5 -33h8q8 6 22.5 20.5t14.5 18.5v223l209 41q4 2 18 16.5t20 22.5v8 q0 41 -30.5 54.5t-63.5 13.5q-37 0 -68.5 -10.5t-66.5 -10.5q-4 0 -12 -1t-18.5 1t-17.5 6.5t-7 14.5v151q0 10 11 17.5t25.5 12.5t29 7t22.5 2q23 0 40 -12t33.5 -26.5t34 -26.5t39.5 -12q43 0 56.5 25.5t13.5 58.5q0 14 -1 32.5t-7 34.5t-18.5 27.5t-32.5 11.5h-209 q-23 0 -31 27.5t-11 70.5t-4 91.5t-10.5 91.5t-31 70.5t-62.5 27.5q-12 0 -23.5 -2t-15.5 -19v-20q0 -12 -1 -26.5t-1 -28.5v-19q0 -66 11.5 -126t11.5 -126q0 -35 -18.5 -44t-51.5 -9q-31 0 -42 24.5t-21.5 53.5t-27.5 53.5t-58 24.5q-37 0 -43.5 -16.5t-6.5 -51.5 q0 -31 10.5 -58.5t10.5 -56.5q0 -27 -23.5 -44t-60.5 -32.5t-78 -28.5t-78 -31.5t-60.5 -42t-23.5 -56.5zM469 520q0 8 8 22.5t19.5 27t25 20.5t23.5 6q37 -10 47 -52t10 -71q0 -14 -2 -32.5t-8 -34t-17.5 -26.5t-29.5 -11q-20 0 -34.5 18.5t-24 43t-13.5 50t-4 39.5z" />
<glyph unicode="$" horiz-adv-x="757" d="M14 260q0 -74 47.5 -109.5t113 -52t132 -22t107.5 -17.5q-2 -20 -3 -67t5 -95.5t25.5 -85t56.5 -36.5q29 0 39 9t10 36q0 104 -10.5 207.5t-10.5 208.5q0 49 10.5 93t10.5 91q0 55 -11.5 106.5t-11.5 110.5v22q0 18 1 39t1 37v25q-4 31 12.5 35t32.5 4q31 0 53.5 -11.5 t53.5 -11.5q39 0 49 11.5t10 50.5q0 43 -22.5 58t-54 21.5t-64.5 14.5t-51 37v84q0 45 -9.5 80.5t-33 59.5t-74.5 24q-27 0 -40 -9.5t-13 -40.5q0 -37 10 -69.5t10 -73.5v-76q-6 -16 -16 -18t-23 -2q-12 0 -22 2t-15 18q0 10 -3 38t-6 57.5t-6 57t-5 38.5q-4 23 -13.5 49 t-41.5 26q-39 0 -49.5 -27.5t-10.5 -53.5q0 -66 20.5 -128.5t20.5 -123.5q0 -25 -13 -36t-28.5 -23.5t-28 -32t-12.5 -58.5q0 -53 12.5 -89t69.5 -71v-321q0 -4 -14 -11.5t-25 -7.5q-20 0 -32.5 12.5t-23.5 27t-24.5 26.5t-31.5 12q-20 0 -40 -13t-20 -36zM336 715 q0 45 49 45q16 0 24.5 -14.5t11.5 -32t2 -33.5t-1 -23q-41 0 -63.5 8.5t-22.5 49.5z" />
<glyph unicode="%" horiz-adv-x="1187" d="M35 782q0 -242 107.5 -398.5t330.5 -248.5q2 0 10.5 -3t17.5 -6l18 -6t11 -3q20 -10 27.5 -33t14 -45.5t18.5 -38.5t43 -16q20 0 35.5 10t27 24.5t20.5 31t21 28.5q61 68 135 141.5t137.5 154.5t106.5 171t43 192q0 16 -3 55t-14.5 78t-30.5 69t-50 30h-248l-15 -7 q-14 -8 -22 -12q-4 -2 -18.5 -11t-29.5 -18.5t-29.5 -17.5t-16.5 -10q-2 0 -9 -1t-11 -1q-31 0 -59 36t-64.5 79t-92 78.5t-143.5 35.5q-47 0 -95 -40t-86 -94t-62.5 -111.5t-24.5 -92.5zM170 666q0 37 5 89t20.5 100t46 82t84.5 34q68 0 107.5 -37t39.5 -107 q0 -35 -10 -63.5t-10 -61.5t21.5 -35.5t49.5 -2.5q51 0 97.5 27.5t91.5 59t94 59.5t111 28h32q27 0 35 -2q10 -6 19.5 -19.5t16.5 -29t12 -29t7 -17.5q-23 -92 -61.5 -180t-98 -157.5t-139 -112.5t-184.5 -43q-76 0 -145.5 38t-124 98t-86 134t-31.5 148z" />
<glyph unicode="&#x26;" horiz-adv-x="724" d="M131 242q0 -29 17.5 -64t45 -67.5t61.5 -54t67 -21.5q29 0 59.5 11t56 29.5t42 44t16.5 54.5v19q0 12 -2 23t-8.5 19.5t-20.5 8.5q-4 0 -7 -1l-3 -1q-4 -2 -14.5 -10.5t-24 -17.5t-24.5 -17.5t-13 -10.5q0 -2 -6 -2h-11q-35 0 -66.5 26t-31.5 60q0 35 16.5 58.5 t41.5 46.5q10 8 37.5 29.5t57 46t57.5 46t38 29.5q0 4 1 18.5t1 18.5q0 18 -7 32.5t-14.5 27t-14.5 26t-7 31.5t15.5 24.5t34 12.5t33.5 16t15 37q0 66 -11 128.5t-11 129.5v37t1 46.5t1 39.5v18t3 13.5t7 25t7 23.5t3 14t-8 18.5t-12 18.5q-4 6 -17.5 19.5l-29 29 l-28.5 28.5l-19 19h-11q-12 0 -21 -9t-15.5 -22.5t-8.5 -27.5t-2 -25q0 -78 10.5 -152.5t10.5 -152.5v-104q-27 -43 -66 -60.5t-75.5 -33t-63.5 -39t-27 -78.5q0 -29 12.5 -46.5t28 -31.5t28.5 -29.5t13 -40.5q0 -4 -1 -10t-1 -8q-39 -37 -64.5 -65.5t-41 -57.5t-22.5 -62.5 t-7 -80.5zM432 -305v-21q0 -23 8.5 -76t21.5 -108t30.5 -97t37.5 -42q18 0 29.5 10t18 25.5t8.5 33t2 31.5v53q0 14 -3 52t-6.5 80t-6.5 80t-3 53q-10 16 -29.5 27t-37.5 11t-37 -11t-29 -27q0 -6 -1 -19.5t-2 -28t-1 -26.5z" />
<glyph unicode="'" horiz-adv-x="256" d="M82 981q0 -29 5 -39t28 -10q18 0 36.5 38t34 87t25.5 97t10 67q0 31 -17.5 36t-33.5 5q-37 0 -55.5 -30t-25.5 -74t-7 -93v-84z" />
<glyph unicode="*" horiz-adv-x="1007" d="M25 526q0 -39 22.5 -66.5t63.5 -27.5q33 0 58.5 20.5t55.5 20.5q23 0 27 -15.5t4 -31.5q0 -37 -12.5 -67.5t-27.5 -61.5t-27.5 -61.5t-12.5 -65.5q0 -33 8.5 -46t42.5 -13q45 0 61.5 31.5t23.5 71.5t16.5 77t40.5 49l18 -18q-4 -78 27.5 -154t105.5 -113l3 -1t5 -1 q27 0 29 26.5t2 43.5q0 31 -9 58.5t-20.5 55t-20.5 57.5t-9 66q0 14 6 25.5t22 11.5q12 0 34 -17.5t34 -21.5q8 4 26.5 12.5t38 20.5t35 27.5t15.5 34.5q0 23 -11.5 43t-11.5 43q0 2 1 5t1 5q18 16 48 22.5t64 8.5t68.5 4t62.5 10t45 26.5t17 53.5q0 12 -9 30.5t-23.5 36 t-32 27.5t-31.5 8q-4 0 -12 -6t-17.5 -13t-17.5 -13.5t-10 -6.5q-18 -6 -58.5 -15t-84.5 -18.5t-84 -16.5t-58 -7q-27 0 -34 13.5t-7 35.5q0 6 1 16.5t3 10.5l170 342l1 7q1 7 1 11q0 35 -26.5 48.5t-55.5 13.5q-37 0 -58.5 -29t-37.5 -63.5t-33.5 -63.5t-46.5 -29 q0 55 -6 99.5t-59 81.5q-25 -20 -51.5 -51t-26.5 -64q0 -20 9 -39t20.5 -36t20.5 -36.5t9 -40.5q0 -14 -6 -26.5t-22 -12.5q-4 0 -8 1l-3 1q-4 0 -18 6.5t-29.5 12.5t-30 12t-16.5 6t-5 1t-5 1q-23 0 -27 -17.5t-4 -33.5q0 -25 23.5 -48.5t50 -48t47 -49t14.5 -50.5 q-2 -6 -16 -20.5t-23 -16.5q-25 -2 -67 -2q-41 0 -81 -7.5t-69.5 -28t-29.5 -61.5zM575 528q6 18 27 22.5t35 4.5q0 -16 -7 -31.5t-26 -15.5q-2 0 -5 1l-3 1q-4 2 -11.5 8t-9.5 10z" />
<glyph unicode="+" horiz-adv-x="933" d="M39 692q0 -27 12 -57.5t45 -30.5q31 0 36 17.5t5 44.5q0 23 -8 48t-41 25q-49 0 -49 -47zM59 190q0 -4 15.5 -20t37 -36.5t44 -42t37.5 -34.5q37 -31 91 -44t101 -13h16q2 0 10.5 6t18.5 12.5t18.5 12.5t10.5 8q66 33 145.5 73t148 92t115.5 119.5t47 155.5q0 33 -8 52.5 t-51 37.5q-27 -14 -36 -35.5t-12 -45t-7 -48t-21 -43.5q-35 -41 -86 -87t-109.5 -86t-118.5 -66.5t-114 -26.5q-68 0 -97.5 36t-47 80t-37 79.5t-64.5 35.5q-8 0 -27.5 -2t-19.5 -18v-152zM379 750q0 -29 24.5 -57.5t55.5 -28.5q35 0 46 30.5t11 57.5q0 31 -18.5 48 t-48.5 17q-33 0 -51.5 -18t-18.5 -49z" />
<glyph unicode="," horiz-adv-x="262" d="M-43 -281q59 0 102 32t74 79t50.5 103.5t31.5 103.5q0 2 1 30.5t1 43.5q0 31 2 68.5t-4 69.5t-25.5 53.5t-60.5 21.5q-4 0 -22.5 -1t-24.5 -1q-16 -18 -18.5 -40t-2.5 -44q0 -10 1 -29t1 -21t3.5 -10t7.5 -17t6 -17.5t2 -10.5q-4 -59 -24.5 -109.5t-43 -99.5t-40 -98 t-17.5 -107z" />
<glyph unicode="." horiz-adv-x="352" d="M51 45q0 -33 22.5 -49t53.5 -16q16 0 39.5 9t46.5 23.5t41 30.5t25 31q0 2 -7.5 16t-11.5 23q-4 2 -10 9t-10 9q-8 0 -33 1t-33 1q-25 0 -47.5 -2t-39.5 -10t-26.5 -25.5t-9.5 -50.5z" />
<glyph unicode="/" horiz-adv-x="401" d="M-106 57q0 -20 13 -38.5t36 -18.5q27 0 53.5 25.5t49 59.5t41.5 69.5t36 54.5q14 18 44 56t67.5 86t78.5 102.5t78 102.5t66.5 87t44.5 57q0 4 1 18.5t1 18.5q0 23 -5 45.5t-36 30.5q-25 6 -50.5 -18.5t-48 -61.5t-41 -73.5t-30.5 -53.5q-49 -68 -100.5 -132 t-102.5 -128.5t-101 -131.5t-93 -138q0 -2 -1 -9.5t-1 -9.5z" />
<glyph unicode="0" horiz-adv-x="894" d="M43 377q0 -45 4 -96.5t14.5 -101.5t30 -97t47.5 -84q8 -10 23.5 -26.5t30 -32t26.5 -25.5t14 -10h228q63 76 138 141.5t137.5 135t104.5 152.5t42 197q0 33 -2 72t-9.5 78t-24 73.5t-44.5 59.5q-10 8 -40 29.5t-62.5 46t-63.5 46t-43 30.5q-57 35 -95 56t-96 21 q-25 0 -41 -9t-27 -23.5t-21.5 -31.5t-22.5 -34q-51 -66 -96 -130t-79 -132t-53.5 -142.5t-19.5 -162.5zM176 350q0 39 5 93.5t17.5 111.5t33 114.5t50 102.5t70.5 72.5t94 27.5q57 0 114.5 -24.5t103 -66.5t74 -97t28.5 -117q0 -74 -33 -169t-90 -180t-133 -144.5 t-162 -59.5q-68 0 -103.5 35t-51 85t-16.5 108.5t-1 107.5z" />
<glyph unicode="1" horiz-adv-x="270" d="M67 118.5q-1 -28.5 4 -55t19 -45t45 -18.5q35 0 59.5 30.5t24.5 65.5q0 31 -10 58.5t-10 58.5q0 166 19.5 331t19.5 326q0 94 -97 95h-30t-25 -21q0 -27 -2 -79t-3 -119.5t-4 -141.5t-4 -140.5t-3 -119.5t-2 -78v-96q0 -23 -1 -51.5z" />
<glyph unicode="2" horiz-adv-x="897" d="M35 606q2 -6 12 -17t22.5 -23.5t23.5 -23t18 -12.5q0 -2 6 -2h12q27 0 59.5 39t71.5 85t82 85t90 39q18 0 19.5 -18.5t1.5 -26.5q0 -63 -27 -128.5t-68 -128t-87 -122t-87 -112t-67.5 -97.5t-26.5 -80t20.5 -50t53.5 -15h29q8 0 12 2t10 6t29 12q70 29 138.5 53.5t138 42 t141 23.5t149.5 -4q33 27 55.5 54.5t22.5 70.5q0 45 -49 45q-117 0 -235 -30.5t-230 -63.5q-2 -2 -9.5 0t-9.5 2v35q12 20 39 71.5t57.5 108.5t56.5 108.5t36 71.5q16 37 27.5 62.5t18.5 49t10 48.5t3 55q0 53 -23.5 90t-82.5 37q-72 0 -137.5 -37t-125 -89t-110.5 -111.5 t-90 -104.5z" />
<glyph unicode="3" horiz-adv-x="811" d="M39 829q0 -39 19.5 -64.5t60.5 -25.5q27 0 50.5 15.5t47 34t50 34t61.5 15.5q23 0 48 -8.5t25 -41.5v-8q-4 -8 -10 -22.5t-8 -16.5l-266 -264q-16 -16 -18.5 -32.5t-2.5 -34.5q0 -39 18.5 -44.5t53.5 -5.5q27 0 45 10.5t35.5 25t35 26.5t42.5 16q53 10 111.5 15.5 t111.5 5.5q78 0 98 -78q-16 -53 -45 -101.5t-69.5 -85t-91 -58t-107.5 -21.5q-18 0 -28.5 15t-21 33.5t-23.5 34t-38 15.5q-39 0 -54 -26.5t-15 -61.5q0 -41 21.5 -80t55.5 -61h17q14 0 29.5 -1t27.5 -1h21q76 0 157.5 34.5t148 93t109.5 134t43 157.5q0 70 -31.5 111 t-79.5 61.5t-105.5 26.5t-108.5 8q-2 4 -2 10v11v10t2 8q8 25 24.5 44.5t31.5 40t26.5 43t11.5 52.5q0 45 -21.5 76t-55.5 50.5t-72.5 27.5t-71.5 8q-25 0 -74 -11t-98 -31.5t-85 -50.5t-36 -67z" />
<glyph unicode="4" horiz-adv-x="872" d="M6 412q0 -29 23.5 -53.5t54.5 -24.5q4 0 11 1l7 1q2 2 13.5 10t25 18.5t23.5 18.5t14 10h19h28h29h18q25 2 46.5 12.5t43 19.5t44 17.5t47.5 8.5q23 0 45 -14.5t22 -43.5q0 -49 -9 -97t-20.5 -97t-20.5 -98.5t-9 -98.5q0 -35 21.5 -50t52.5 -15q29 0 55 7t43 31 q-2 47 -4 105.5t0 119t7 120t15 110.5q2 4 9.5 11.5t11.5 9.5q6 2 24.5 4t40 5t40 6t26.5 3q23 29 32 51.5t9 54.5q0 37 -24.5 41.5t-53.5 8.5t-53.5 20.5t-24.5 77.5q0 74 20.5 144.5t20.5 144.5q0 35 -24.5 59.5t-59.5 24.5q-49 0 -59.5 -39t-8 -97.5t5.5 -127t-20.5 -127 t-86 -97.5t-191.5 -39q0 33 10 61.5t23.5 54.5t23.5 53.5t10 62.5q0 41 -19.5 73.5t-66.5 32.5q-33 0 -44 -14t-13 -36.5t-2 -51.5q0 -27 -10 -51q-2 -8 -18.5 -40t-38 -71t-42 -78t-32.5 -59q-2 -4 -11.5 -14.5t-18.5 -23.5t-17.5 -24.5t-10.5 -13.5l-1 -7t-1 -11z" />
<glyph unicode="5" horiz-adv-x="894" d="M41 549q0 -47 22.5 -82t56.5 -62.5t73.5 -50t73.5 -40t56.5 -35t22.5 -33.5q0 -20 -16.5 -41t-39 -38t-47 -27.5t-40.5 -10.5q-23 0 -32 4t-16.5 13.5t-18.5 24.5t-36 36l-4 1t-6 1q-14 0 -20.5 -7t-8.5 -18.5t-2 -23.5v-19q0 -61 43 -112.5t111 -51.5q18 0 28.5 4.5 t28.5 16.5q35 25 76 50.5t75 56t56.5 68.5t22.5 87q0 43 -22.5 71.5t-56.5 49t-74 36t-73.5 31t-56 34t-22.5 46.5q0 27 19 42.5t44 23.5t50.5 9t37.5 1q14 33 19.5 72t37.5 61q61 31 138 47.5t157 23.5t156 7t137 -2q27 23 51.5 50.5t24.5 64.5q0 29 -15.5 34t-37.5 5 q-80 0 -167 -9.5t-175 -23.5t-171 -31.5t-155 -32.5q-53 -12 -107.5 -40.5t-98.5 -70.5t-71.5 -95.5t-27.5 -114.5z" />
<glyph unicode="6" horiz-adv-x="825" d="M51 315q0 -47 10.5 -110.5t37 -120.5t70.5 -97t112 -40q39 0 94 23.5t114.5 61.5t117 89t103.5 105.5t74.5 109.5t28.5 104q0 8 -1 22.5t-1 16.5l-133 133q-2 0 -22.5 1t-30.5 1h-60t-57 -22l-162 -227v-246q0 -8 -8 -12.5t-17.5 -6.5t-19.5 -2h-12q-39 0 -59.5 31 t-24.5 66v34q0 27 -1 55.5t-1 53.5v37v47t1 58.5t1 49.5v25q0 25 10 53.5t22.5 57t24.5 54t19 42.5q0 2 1 9t1 11q0 14 -15.5 35t-37 38t-42 29.5t-30.5 12.5q-14 0 -28.5 -38t-26 -97.5t-21.5 -130t-16.5 -135t-10.5 -115t-4 -66.5zM479 233q0 27 9.5 66t28 76t44 62.5 t60.5 25.5q25 0 41 -22.5t16 -47.5v-8q-2 -6 -9 -20.5t-10 -18.5q-12 -12 -30.5 -31.5t-37 -38t-31.5 -31t-15 -12.5h-66z" />
<glyph unicode="7" horiz-adv-x="1058" d="M10 731q0 -43 13.5 -52t54.5 -9q57 0 115.5 10t117 24.5t115.5 26.5t117 17q20 -8 38.5 -27t31 -41.5t19.5 -48t7 -45.5q0 -27 -25.5 -35t-63.5 -10t-83 -2t-83 -8.5t-63.5 -33t-25.5 -73.5q0 -41 13.5 -49t53.5 -8q55 0 105.5 20.5t103.5 20.5q33 0 41.5 -12.5 t8.5 -43.5q0 -53 -11.5 -99t-11.5 -99q0 -29 4 -54.5t16.5 -47t33 -34t53.5 -12.5q12 0 27.5 2t19.5 19q0 14 -1 52t-1 81t1 79.5t1 53.5q0 14 2 34.5t8 39t17.5 35t29.5 24.5q27 2 65 2q39 0 76 8t62.5 27.5t25.5 58.5q0 41 -21.5 48.5t-55.5 7.5q-35 0 -68 -10.5 t-68 -10.5q-39 0 -52 23.5t-15 60.5t-1 78t-7.5 78t-34 60.5t-82.5 23.5q-25 0 -80 -2t-125 -7.5t-143.5 -15.5t-135 -26.5t-100.5 -41t-39 -57.5z" />
<glyph unicode="8" horiz-adv-x="643" d="M35 199q0 -92 50 -155.5t151 -63.5q84 0 152.5 48t116.5 121.5t73.5 158.5t25.5 159q0 33 -18.5 57.5t-40 46t-40 43t-18.5 48.5q0 25 12.5 44t28 37.5t27.5 40t12 47.5q0 49 -37.5 91.5t-87.5 42.5h-26q-37 -27 -94.5 -56.5t-112.5 -67.5t-95 -83t-40 -103q0 -27 9 -48 t20.5 -40.5t20.5 -40t9 -45.5q0 -39 -15.5 -71.5t-33.5 -65.5t-33.5 -67.5t-15.5 -77.5zM168 178q0 39 8 99.5t29.5 117t58.5 96t94 39.5q70 0 113 -57q2 -10 4 -37.5t2 -38.5q0 -37 -22.5 -85t-59.5 -93t-82 -75.5t-88 -30.5q-29 0 -43 19t-14 46zM205.5 655.5 q1.5 20.5 5.5 36.5q2 27 15.5 46.5t33 32.5t43 23.5t45.5 20.5q10 -4 19.5 1t19.5 3q4 0 4 -4l6 33q4 0 8.5 -14.5t8.5 -14.5q10 -6 9 -15t-6 -18.5t-11.5 -20.5t-6.5 -22q-2 -33 -18 -55t-41 -35.5t-54.5 -17.5t-56.5 0q-25 0 -23.5 20.5z" />
<glyph unicode="9" horiz-adv-x="743" d="M14 606q0 -35 16.5 -71.5t42 -65.5t59.5 -47.5t69 -18.5q41 0 79.5 21.5t72.5 48.5t63.5 48.5t52.5 21.5q35 0 38 -21.5t3 -50.5q0 -94 -20.5 -186.5t-20.5 -180.5q0 -35 25.5 -65.5t62.5 -30.5q31 0 58.5 20.5t27.5 55.5t-11 67.5t-11 67.5q0 8 1 21.5t1 15.5 q0 6 6 31.5t12 54.5t12 53.5t6 30.5v31v55v53v33q4 37 21.5 67.5t17.5 65.5q0 12 -7 34.5t-19.5 44t-27.5 38t-32 16.5q-2 0 -5 -1l-3 -1q-4 -4 -15 -11t-23.5 -16.5t-23 -17.5t-14.5 -12q-18 27 -40.5 53.5t-48 48t-55.5 35.5t-65 14q-66 0 -121 -33.5t-96 -85 t-64.5 -112.5t-23.5 -119zM147 614q0 27 13.5 57.5t35 56.5t48 43t53.5 17q55 0 68.5 -34.5t13.5 -85.5q0 -35 -12.5 -56.5t-34 -34t-50 -16.5t-61.5 -4q-29 0 -51.5 12t-22.5 45z" />
<glyph unicode=":" horiz-adv-x="266" d="M41 285q0 -12 5 -28.5t14.5 -32t21.5 -26t27 -10.5q35 0 70.5 28t35.5 65q0 80 -80 79q-33 0 -63.5 -18t-30.5 -57zM59 500q0 -37 28 -52.5t63 -15.5q29 0 47 17.5t18 48.5q0 80 -82 80q-74 0 -74 -78z" />
<glyph unicode=";" horiz-adv-x="319" d="M-23 -383q59 0 102.5 32t74 79t50 103t32.5 103q0 2 1 31t1 43q0 31 2 69t-4.5 69.5t-26 53t-59.5 21.5q-4 0 -22.5 -1t-25.5 -1q-16 -18 -18 -39.5t-2 -44.5q0 -10 1 -28.5t1 -20.5t3 -10t7 -17.5t6 -17.5t2 -10q-4 -59 -24.5 -109.5t-43 -99.5t-40 -98.5t-17.5 -106.5z M82 541q0 -18 2 -40t8 -38.5t19.5 -27.5t38.5 -11q35 0 60.5 15.5t25.5 52.5q0 45 -34 84.5t-81 39.5q-35 0 -37 -24t-2 -51z" />
<glyph unicode="?" horiz-adv-x="731" d="M10 852q2 -4 8.5 -10t10.5 -8q68 18 118 59t98 83t102 73.5t132 31.5q29 0 54.5 -10t25.5 -47q0 -78 -42 -143.5t-91 -129t-91 -129t-42 -141.5q0 -27 14.5 -46t42.5 -19q14 0 48 42t74 106.5t83 141t78 148.5t57.5 128t22.5 77q0 37 -17.5 67.5t-46 54t-64.5 37 t-73 13.5h-10q-14 -4 -49 -14.5t-74 -22.5t-74 -23.5t-49 -15.5q-27 -37 -69 -65.5t-80.5 -61.5t-67.5 -71.5t-29 -94.5v-10zM233 31q0 -16 7.5 -42t33.5 -26h134q10 0 17 11.5t12 25.5t7 28.5t2 22.5q0 45 -29.5 56.5t-68.5 11.5q-41 0 -78 -18.5t-37 -69.5z" />
<glyph unicode="A" horiz-adv-x="835" d="M14 -45q0 -18 4.5 -30.5t34.5 -12.5q27 0 48.5 22.5t37 53t26.5 62.5t21 50q4 6 17.5 35t30 60.5t29.5 60.5t18 35q4 4 10 11t10 7h225q29 0 41.5 -24.5t17.5 -60.5t7 -78t9 -77.5t24.5 -60t52.5 -24.5q57 0 77.5 42t20.5 89q0 23 -9 39t-21.5 31.5t-21.5 30.5t-9 36 q0 20 12 36.5t27.5 30t28 28.5t12.5 38q0 20 -11.5 32.5t-28 22t-32.5 17.5t-25 22q3 107 3 222q0 58 -1 117q-2 179 -22 343q-10 29 -22.5 43.5t-43.5 14.5q-14 0 -37.5 -32t-51 -81t-57.5 -109.5t-55.5 -118t-45 -103.5t-27.5 -68q-4 -12 -7 -30t-6 -37t-8.5 -36.5 t-15.5 -30.5q-4 -4 -21.5 -20t-37 -35.5l-36 -36l-20.5 -20.5t-11 -19.5t-7 -19.5v-25q0 -18 1 -40.5t1 -43.5q0 -18 -2 -22q-12 -41 -37 -78t-51.5 -76t-46 -83t-19.5 -99zM354 492q0 4 1 14t1 12l10.5 10.5t18.5 17.5t18.5 17t10.5 10q16 31 30.5 69t26.5 79t21.5 81 t15.5 75q4 2 10 3t8 1q25 0 32 -16.5t7 -45.5v-340l-39 -37h-149q-18 0 -20.5 21t-2.5 29z" />
<glyph unicode="B" horiz-adv-x="1122" d="M37 172q0 -4 1 -14.5t1 -14.5q43 -76 122 -113.5t163 -37.5q55 0 135 19.5t167 53t172 82t152.5 105.5t109.5 121.5t42 132.5q0 27 -26.5 59.5t-63.5 61t-76 47t-64 18.5h-266v39q14 23 33.5 56.5t38 72.5t31 79t12.5 75q0 20 -14.5 41.5t-34 40t-43 33t-41.5 18.5 q-127 -31 -206 -78t-126 -109.5t-69.5 -137t-35 -158.5t-22.5 -177.5t-33 -191.5q-4 -18 -14 -32.5t-20.5 -28t-17.5 -27.5t-7 -35zM266 248q0 92 50.5 152.5t124 96t159.5 50t158 14.5h26h39q23 0 41.5 -1t26.5 -1q35 -10 47 -24.5t12 -49.5q0 -51 -33.5 -97t-87 -87 t-119 -73.5t-129 -56.5t-119.5 -36t-89 -12q-66 0 -86.5 24.5t-20.5 100.5zM322 690q0 43 9 96.5t31.5 100.5t60.5 78.5t97 31.5q29 0 40 -9t11 -38q0 -45 -18 -90t-46 -87t-61.5 -78t-66.5 -60h-19q-29 0 -33.5 15t-4.5 40z" />
<glyph unicode="C" horiz-adv-x="874" d="M43 508q0 -92 27.5 -187.5t83 -172t138.5 -122.5q71 -39 160 -39q15 0 31 1q45 2 110.5 26.5t125 62.5t102.5 87t43 104q0 33 -7 47.5t-42 14.5h-29q-59 -96 -136 -153.5t-195 -57.5q-98 0 -153.5 50t-83.5 125t-34 160t-6 156q0 25 9.5 64t25.5 75.5t38.5 64.5t51.5 28 q12 0 18.5 -9.5t9.5 -22.5t3 -28v-18q0 -41 -20.5 -76t-20.5 -76q0 -35 21.5 -55t56.5 -20q12 0 28.5 9t30.5 23.5t24.5 31.5t10.5 32v264q0 18 -14.5 38.5t-36 38t-44 29t-40.5 11.5q-49 0 -90 -28t-73 -72t-55.5 -100t-39 -112.5t-22.5 -107.5t-7 -86z" />
<glyph unicode="D" horiz-adv-x="956" d="M37 70q0 -39 29.5 -74t70.5 -65.5t83 -59.5t65 -55h39q8 8 28.5 30.5t45 46t46 45t31.5 29.5q12 12 33.5 18.5t44 9.5t43 5t31.5 6q47 16 101 50t99 78t75 95.5t30 104.5q0 55 -18.5 104t-44 95.5t-51 93.5t-40.5 98q-25 31 -65.5 77t-91 88t-104.5 71.5t-105 29.5 q-31 0 -70 -15t-72.5 -40t-56.5 -55.5t-23 -61.5v-682q0 -4 -7 -18.5t-11 -18.5l-3 -1t-7 -1q-2 0 -5 1l-3 1q-2 0 -10.5 6.5t-18.5 12.5t-18.5 12t-10.5 6t-8 1t-10 1q-35 0 -38 -20t-3 -49zM320 484q-1 27 -0.5 53.5t0.5 53.5q2 54 7 107.5t15 102.5q12 29 26.5 34t37.5 5 q80 0 150.5 -51.5t124.5 -127t86 -161.5t32 -154q0 -70 -44 -120t-107.5 -82.5t-135.5 -48t-127 -15.5q-23 0 -36 5t-25 34v51q0 39 -1 81t-1 79v55q0 45 -2 99z" />
<glyph unicode="E" horiz-adv-x="913" d="M41 240q0 -61 31.5 -108.5t81 -79.5t107.5 -48t112 -16q47 0 101 6t106.5 15t100.5 19.5t83 18.5q31 8 52.5 27.5t35.5 45t21.5 55.5t7.5 58q0 29 -2 54.5t-39 25.5q-25 0 -41.5 -23.5t-41 -54t-66.5 -58t-116 -36.5q-18 -2 -50.5 -5t-66.5 -6t-59.5 -5t-31.5 -2 q-18 0 -48 8t-58 23.5t-47 35t-19 43.5q0 41 28.5 73t70.5 58.5t92 49t92 47t71 52.5t29 65q0 23 -8.5 49t-41.5 26h-10q-6 -2 -30.5 -11t-54.5 -18.5t-54.5 -17.5t-30.5 -10h-10q-45 0 -85 23.5t-40 70.5q0 4 1 19.5t1 19.5q57 66 127 118t166 52q53 0 80.5 -12.5t42 -31.5 t19.5 -41.5t13.5 -42t23.5 -32t50 -12.5q25 0 39.5 12.5t20.5 29.5t7 37.5t1 39.5q0 51 -27.5 87t-68.5 58.5t-89.5 32.5t-91.5 10q-72 0 -152.5 -31.5t-151 -85t-117 -126t-46.5 -152.5q0 -31 20.5 -53.5t48.5 -43t57.5 -39t45.5 -40.5l-188 -189q-2 -2 -3 -14t-1 -20z" />
<glyph unicode="F" horiz-adv-x="974" d="M33 774q2 -27 2 -45q0 -29 1 -93.5t5 -144t12 -165.5t23.5 -157t38 -116t53.5 -45q29 0 52.5 30t23.5 56v10q-2 6 -7.5 26t-12.5 41.5t-12 40.5t-7 26v20q0 47 46 66.5t115.5 26.5t151.5 8t151.5 12.5t115.5 38t46 86.5q0 35 -23.5 40t-51.5 5q-66 0 -129.5 -12.5 t-127 -27t-128 -26.5t-129.5 -12q-20 0 -31.5 12t-18 29.5t-7.5 37t-1 33.5q0 119 60.5 180.5t150.5 86t196.5 25.5t199.5 1q0 -39 -20.5 -56t-46.5 -29.5t-46.5 -29t-20.5 -51.5q0 -12 2.5 -28.5t18.5 -20.5q43 2 82 21.5t72.5 47.5t62.5 60.5t49 61.5v47q0 29 -5 57.5 t-34 46.5h-35q-23 0 -49 1t-51 1h-35q-88 0 -170 -13t-161.5 -29.5t-161.5 -32t-170 -21.5q-20 -6 -28.5 -26.5t-10.5 -47t0 -53.5z" />
<glyph unicode="G" horiz-adv-x="948" d="M37 328q0 -59 18.5 -117.5t53 -105t86 -75t116.5 -28.5q39 0 75 12.5t71 27.5t69.5 27.5t71.5 12.5h10q14 -8 22.5 -27.5t11.5 -41t3 -40.5v-24q18 -18 46 -19.5t50 -1.5q29 0 52.5 3t23.5 38q0 23 -7 42.5t-14.5 38t-14.5 39t-7 44.5q0 12 1 37t3 27q2 4 13.5 17 t24.5 28.5t24.5 30t13.5 18.5q2 6 5 30.5t6 54.5t5 54.5t2 30.5q10 57 24.5 109.5t14.5 111.5q0 23 -1 44.5t-9 38.5t-23.5 27.5t-43.5 10.5h-19q-129 -59 -268 -130t-262 -136q-12 -16 -15.5 -27.5t-3.5 -30.5q0 -27 9.5 -43t37.5 -16q4 0 14.5 1t14.5 3q12 6 45 21.5 t70 34t68.5 34.5t43.5 23q14 8 29.5 21t32 25.5t34 20.5t37.5 8q4 0 18.5 -7t18.5 -11q2 -6 2 -25v-22q0 -199 -114.5 -303.5t-313.5 -104.5q-49 0 -77.5 28t-43 66.5t-18.5 82.5t-4 77q0 29 6 75t18.5 97t32 103.5t47 94.5t63.5 68.5t81 28.5q8 -33 27.5 -64.5t58.5 -31.5 q27 0 47 19.5t32.5 46t18.5 56t6 50.5q0 14 -11 36.5t-28.5 44t-37 36t-37.5 14.5q-2 0 -16.5 -7t-20.5 -11q-8 -4 -22.5 -12.5t-30 -17.5t-27.5 -17.5t-17 -10.5q-80 -53 -141 -128t-101 -162t-60.5 -183t-20.5 -190z" />
<glyph unicode="H" horiz-adv-x="753" d="M33 377q0 -29 3 -80t11 -110.5t20.5 -121t32 -111.5t46 -82t61.5 -32q25 0 48.5 12.5t41.5 32t29.5 44t11.5 48.5q0 33 -17.5 37t-40 2t-44 2.5t-31.5 34.5q0 8 -3 33t-6 51.5t-6.5 51t-3.5 34.5v23q0 23 41 43t94.5 35.5t104.5 23.5t74 8h8q18 -10 26.5 -33.5t11.5 -49 t2 -46t-1 -22.5q0 -16 -9.5 -29.5t-20.5 -26t-20.5 -26.5t-9.5 -33q0 -41 28 -68.5t67 -27.5q27 0 42 7t22 21.5t9 36t4 50.5q0 16 1.5 56t1.5 85q0 47 -1 87t-2 56q10 8 34 33t24 43t-12.5 31.5t-25.5 26t-25.5 24.5t-12.5 31v569q0 14 -8 22.5t-20.5 12.5t-24.5 4h-21 q-45 0 -62.5 -24.5t-17.5 -67.5q0 -131 20.5 -260t20.5 -258q0 -51 -23.5 -76t-72.5 -35q-20 -4 -52 -11t-62.5 -13.5t-51.5 -9.5l-22 -3l-39 37q0 2 -1 22.5t-1 30.5q0 51 9 102.5t21.5 101.5t21.5 100.5t9 101.5q0 41 -22.5 48t-57.5 7q-20 0 -44.5 -4t-28.5 -37l-39 -455 q-27 -35 -33 -55t-6 -55z" />
<glyph unicode="I" horiz-adv-x="1087" d="M35 809q0 -29 25.5 -43t52.5 -14q31 0 58.5 9t55 20.5t56 20.5t59.5 9q10 0 20.5 -2t14.5 -18q-3 -44 -3 -85t3 -79q6 -76 14 -150t16.5 -149.5t8.5 -163.5q0 -12 -1 -21.5t-18 -15.5q-25 0 -60.5 -1t-69.5 -9t-57.5 -27.5t-23.5 -56.5q0 -25 14.5 -50.5t45.5 -25.5 q49 0 91 19.5t89 19.5q14 0 25.5 -6t20.5 -13.5t20.5 -13.5t27.5 -6h8q84 96 192.5 133t235.5 37q25 0 46.5 -10.5t48.5 -10.5q29 0 39 11.5t10 40.5q0 33 -18.5 50t-44 25.5t-55.5 9.5t-50 1q-45 0 -86 -9.5t-81 -20.5t-82 -20.5t-89 -9.5q-20 0 -33.5 1t-32.5 18 q-22 79 -22 169v12q2 97 2 179v45t1 69t1 68v46q4 18 19.5 37.5t37.5 19.5h322q31 0 38 -26.5t10 -59.5t12 -59.5t44 -26.5q14 0 23.5 18.5t15.5 43t8 48t2 35.5q0 53 -28.5 85t-71.5 48.5t-92 21.5t-90 5q-57 0 -112.5 -10t-112.5 -10q-31 0 -50.5 19t-50.5 19h-18 q-2 -2 -10.5 -8t-18.5 -12t-18.5 -12t-10.5 -6q-8 -2 -38.5 -10.5t-65.5 -17.5t-65.5 -18.5t-38.5 -11.5q-12 -4 -32 -12t-38.5 -20.5t-31.5 -28t-13 -33.5z" />
<glyph unicode="J" horiz-adv-x="737" d="M10 276q0 -4 1 -14t1 -14q23 -53 49.5 -105.5t62.5 -92.5t83 -64.5t108 -24.5q63 0 123 27.5t109 74t83 103.5t46 119v161q0 29 2 82.5t2 116.5q0 66 -4 133.5t-18.5 122.5t-39 90t-65.5 35t-54.5 -8t-13.5 -49q0 -51 8.5 -103.5t18.5 -104.5t19.5 -104.5t11.5 -105.5 q0 -18 -2 -61.5t-5.5 -91.5t-6.5 -91t-5 -59q-6 -29 -27.5 -55.5t-50 -49t-60.5 -36t-60 -13.5q-31 0 -59.5 16.5t-51 41t-37 54.5t-14.5 58v21q0 2 3 14t6 24.5t6 23.5t3 13t1 5.5t1 5.5q0 51 -49 51q-23 0 -44 -15.5t-39.5 -37t-30 -47t-11.5 -46.5z" />
<glyph unicode="K" horiz-adv-x="946" d="M45 485q0 -35 14 -57t47 -47v-399q0 -16 19.5 -18.5t28.5 -2.5q37 0 50 21.5t16 53.5q1 12 1 25q0 21 -3 43q-5 36 -6 68.5t7 54t37 21.5t53.5 -10.5t47 -24.5t44 -30.5t45.5 -28.5q18 -10 63.5 -32t96.5 -46.5t98.5 -45t65.5 -28.5q4 -2 12 -2h15q16 0 40.5 7t47 19.5 t39 30t16.5 39.5q0 4 -7 18.5t-11 18.5q-78 0 -173.5 26.5t-188.5 69.5t-174 97.5t-128 109.5q0 4 -1 14.5t-1 14.5q0 31 38 62.5t95 63.5t124 64.5t124 66.5t95 68.5t38 71.5q0 35 -23.5 51.5t-52.5 16.5h-20q-8 -8 -29.5 -26.5t-46.5 -40t-46.5 -40t-29.5 -26.5 q-4 -4 -18.5 -19.5t-18.5 -17.5q-23 -16 -40 -25.5t-36.5 -16.5t-41 -19.5t-52.5 -34.5h-10h-10q-6 4 -17.5 10t-11.5 10v455q0 29 -19.5 34t-35.5 5t-42 -6.5t-26 -32.5v-512q0 -25 -15 -40.5t-33.5 -29.5t-34 -30.5t-15.5 -41.5z" />
<glyph unicode="L" horiz-adv-x="1036" d="M43 123q0 -43 28.5 -65.5t69.5 -31t84 -8.5h76q147 0 285.5 5.5t292.5 13.5q4 2 18 8t18 10q6 8 22.5 26.5t35 40t35 40t22.5 26.5q0 4 1 14.5t1 14.5q0 29 -12 39t-41 10h-14t-11 -2l-114 -94q0 -2 -34 -4t-79 -5t-92 -6t-78 -3h-22t-43 -1t-50 -1h-36h-31q-20 0 -45 1 t-47 1h-29q-12 2 -17.5 13t-6.5 24.5t0 24.5t1 13q0 10 1 32t1 24q0 4 6.5 18t13.5 29.5t13 30t6 18.5q20 109 29.5 230.5t9.5 232.5v28v43t-1 43.5t-1 28.5q-6 20 -26.5 47t-49.5 27q-23 0 -38 -18.5t-17 -36.5q2 -60 2 -119q0 -129 -9 -255q-13 -184 -69 -366 q-6 -20 -16 -36.5t-19.5 -32t-16.5 -31.5t-7 -41z" />
<glyph unicode="M" horiz-adv-x="1173" d="M47 682q0 -6 3 -33.5t6 -60.5t6.5 -60.5t3.5 -33.5q0 -29 1 -102t1 -154q0 -82 -1 -154.5t-1 -101.5q4 -20 26 -21h33q47 0 72.5 49t37 123t16.5 161t10 160.5t18.5 123t42.5 49.5q8 0 10 -2q14 -53 20 -141.5t19.5 -179.5t41 -166t89.5 -99q8 -3 16 -3q22 0 44 18 q32 26 68 72t72.5 103.5t70.5 111.5t61.5 96t46.5 57q16 -18 24 -61.5t14.5 -97.5t12.5 -113.5t18.5 -109t34 -81t55.5 -31.5q88 0 88 80q0 37 -9 59.5t-50 50.5q-43 280 -43 565q0 106 6 212q-4 10 -14 27.5t-23.5 32.5t-29 25.5t-29.5 8.5q-6 -2 -20.5 -16.5t-16.5 -20.5 q-16 -98 -35.5 -208.5t-40.5 -209.5q-4 -14 -26.5 -50t-50 -77t-54 -80t-39.5 -57l-15 -22.5t-22.5 -35t-22.5 -35l-15 -22.5h-19q-35 0 -52.5 57.5t-28.5 144.5t-21.5 187.5t-28.5 187.5t-50 144.5t-85 57.5q-16 0 -28.5 -3.5t-28.5 -17.5q-4 -47 -12.5 -111.5 t-24.5 -115.5l-95 39q-12 4 -22 -10.5t-18.5 -35t-12.5 -39t-4 -20.5v-10z" />
<glyph unicode="N" d="M55 115q0 -43 12.5 -77t65.5 -34q39 0 54.5 31t19.5 71q3 26 3 52q0 13 -1 25q-2 38 -2 50q0 14 3 49t6 74t5 74t4 49l18.5 18.5t20.5 18.5q0 2 10 2q8 0 9 -2q4 -2 10 -16.5t8 -20.5l152 -512q4 -16 16 -18t23 -2q25 0 51 29.5t53 75.5t52.5 101.5t47 106.5t37 90 t23.5 53q6 12 20.5 39t29.5 53.5t27.5 49t16.5 28.5q23 33 68 74t89 83t76.5 83t32.5 74q0 14 -7 20t-18.5 8.5t-22.5 1t-19 -1.5h-48q-51 -43 -87.5 -80.5t-67.5 -76.5t-60.5 -84t-66.5 -101q-14 -23 -39 -82t-54.5 -120.5t-59 -109.5t-56.5 -48h-18q-4 10 -11.5 39 t-9.5 37v14v25v22v15q0 4 -8 21t-18.5 35.5t-18.5 36t-10 21.5q-23 61 -40.5 118.5t-44 110t-69.5 95.5t-112 74q-2 0 -9.5 1t-9.5 1q-25 0 -37 -18.5t-20 -41.5q2 -59 2 -117q0 -121 -8 -236q-12 -171 -13 -351z" />
<glyph unicode="O" horiz-adv-x="774" d="M49 307q0 -66 12.5 -122t42 -97t76.5 -63.5t117 -22.5h18q14 0 28.5 1t27.5 1h20q166 92 255 237.5t89 333.5q0 68 -19.5 148t-59.5 147.5t-101 112.5t-143 45q-55 0 -120 -17.5t-118 -51t-89 -84t-36 -113.5q0 -31 9.5 -53.5t21.5 -44t21.5 -44t9.5 -49.5 q0 -31 -9.5 -58.5t-21.5 -58t-21.5 -66.5t-9.5 -81zM145 741q0 43 35 76t83 54.5t97.5 31.5t79.5 10q29 0 52.5 -14t42 -36.5t29.5 -49.5t18 -51q4 -23 10 -58.5t12 -72.5t10 -64.5t4 -31.5q0 -61 -22.5 -131t-62 -130.5t-96 -100.5t-124.5 -40q-43 0 -69.5 17.5t-40 46 t-17.5 65.5t-4 74q0 74 17.5 121t43 78.5t55.5 50t55.5 34t43 33t17.5 43.5q0 35 -26 60.5t-62 25.5q-23 0 -43.5 -9t-40 -21.5t-39 -25.5t-39.5 -21q-4 4 -11.5 18t-7.5 18z" />
<glyph unicode="P" horiz-adv-x="921" d="M33 836q0 -78 17.5 -156t60.5 -143q10 -16 37.5 -36t57.5 -41.5t52.5 -43t22.5 -39.5v-10q0 -10 -2.5 -41t-3.5 -72t-4 -87t-4 -87t-3 -72t-2 -41v-41q0 -25 1 -48t9.5 -41.5t23.5 -30t44 -11.5h20t24.5 4t21 12.5t8.5 24.5v567q0 2 36.5 16.5t91 39t119 59.5t119 79 t91 96t36.5 110q0 82 -53 143.5t-129 101t-162 59t-149 19.5q-72 0 -139.5 -15t-122 -50t-87 -90.5t-32.5 -134.5zM90 696q0 25 12.5 71t35 92t52 80t64.5 34h8q4 -4 19.5 -18.5t19.5 -20.5v-8v-11q0 -4 -3 -14t-7 -23.5t-7 -24.5t-3 -13q0 -14 -1 -49t-1 -74t1 -74t1 -49 q-4 -16 -15.5 -19.5t-23.5 -3.5q-4 0 -10 1l-7 1l-133 115l-1 3t-1 5zM377 991q0 18 19.5 19.5t27.5 1.5q37 0 94 -12.5t110.5 -37t91.5 -63.5t38 -94q0 -45 -32 -89t-79 -80t-100 -58.5t-94 -22.5q-12 0 -23.5 1t-15.5 17q0 18 1 61.5t1 90.5q0 49 -1 92t-1 62q0 2 -2 12 t-5.5 22.5t-6.5 23.5t-5 17q-2 4 -10 18.5t-8 18.5z" />
<glyph unicode="Q" d="M39 362q0 -59 14.5 -116.5t43 -101.5t74.5 -70.5t108 -26.5q10 0 41.5 1t41.5 1q6 8 20.5 23.5t31 32t36 28.5t35.5 12q4 0 7 -1l4 -1q29 -10 57.5 -32.5t55 -49t47 -51t30.5 -37.5q4 0 13.5 -1t13.5 -1q18 0 43.5 10.5t49 28t39 38t11.5 40.5q-8 29 -45 35t-78 17.5 t-73.5 42t-32.5 110.5q0 53 10 101t10 100q0 70 -16.5 139t-52 125.5t-91 91.5t-133.5 35q-8 0 -33.5 -1t-33.5 -1q-41 -33 -84 -98.5t-80 -142.5t-60.5 -152.5t-23.5 -127.5zM174 352q2 45 17.5 110.5t45 125t74.5 102.5t111 43q35 0 56.5 -32.5t33.5 -77.5t17.5 -90.5 t5.5 -69.5q0 -16 -3.5 -35.5t-25.5 -19.5q-23 0 -31 23.5t-16 35.5l-19.5 19.5t-29 27.5t-28.5 27.5t-20 19.5q-35 -10 -36.5 -37.5t-1.5 -52.5q0 -37 12 -66.5t27.5 -54t27.5 -47t12 -45.5q0 -37 -37.5 -57.5t-68.5 -20.5q-33 0 -56.5 16.5t-39 41t-22.5 55t-5 59.5z" />
<glyph unicode="R" horiz-adv-x="1247" d="M53 190q0 -29 3 -66.5t15.5 -71.5t35 -57.5t61.5 -23.5q8 0 22.5 1t28.5 4.5t24.5 11.5t10.5 24v303q0 4 11 11.5t18 7.5q23 0 47 -15.5t48.5 -35t49.5 -38t45 -26.5q61 -23 148.5 -41t180.5 -30.5t182 -18.5t153 -6q18 0 52 11t65.5 30.5t54 44t16.5 49.5 q-10 35 -33.5 37t-48.5 2q-53 0 -102 -11.5t-105 -11.5q-51 0 -94 1t-86 4.5t-90 6.5t-104 9q-39 25 -76 41t-75 31.5t-76 33t-77 45.5q0 2 -1 5.5t-1 5.5q0 12 14.5 23.5t32 20.5t33 14t17.5 7q12 10 38.5 37t57.5 57.5t57.5 57t36.5 39.5q14 27 17.5 46t3.5 48 q0 43 -17.5 72.5t-47.5 47t-65.5 26t-72.5 8.5q-61 0 -120.5 -23t-109 -61.5t-81 -91t-37.5 -111.5q-2 -23 -8.5 -74t-12.5 -105.5t-11 -100.5t-7 -60q0 -2 -3 -10.5t-6.5 -18.5t-6.5 -18t-3 -11v-12t-1 -23.5t-1 -27.5v-23zM256 573q0 39 10 83t34 82t59.5 63.5t84.5 25.5 q16 0 41 -14t25 -35q0 -41 -26.5 -77.5t-64.5 -65.5t-82 -45.5t-81 -16.5z" />
<glyph unicode="S" horiz-adv-x="782" d="M41 57q0 -37 18.5 -61.5t59.5 -24.5t75.5 15.5t75.5 21.5q53 10 134 25.5t157 44t130 78t54 127.5q0 4 -1 14t-1 14q-20 25 -64 60t-99.5 72.5t-113.5 77.5t-106.5 77t-79 68.5t-30.5 52.5q0 18 33.5 37.5t76.5 34t81 23.5t46 9q53 0 65.5 -29.5t13.5 -65.5t6.5 -65.5 t48.5 -29.5q25 0 44 15.5t32.5 39t20.5 49t7 47.5q0 35 -16.5 67t-44 55.5t-61.5 36.5t-66 13q-55 0 -123 -9t-132.5 -31.5t-118.5 -59.5t-83 -90v-18q0 -61 37 -109.5t92 -89.5t118.5 -76t119 -67.5t92 -66.5t36.5 -73q0 -23 -6 -40t-34 -27q-111 -41 -232 -70 q-106 -25 -213 -25h-29q-16 -4 -18 -19.5t-2 -27.5z" />
<glyph unicode="T" horiz-adv-x="800" d="M14 676q0 -16 4.5 -32.5t26.5 -16.5q33 0 57.5 9t46 22.5t44 25.5t51.5 18q6 2 18 0t25.5 -4t26 -4t18.5 -2q0 -141 -7.5 -274t-7.5 -273v-28t1 -43t1 -43v-29q2 -10 11.5 -15t20.5 -6t22.5 0t15.5 1h21q14 0 27.5 3t23.5 11t9 24v664q0 20 29 37.5t72 32t96.5 26 t101.5 18.5t86 12t52 7q4 2 12.5 16.5t6.5 20.5q-8 33 -46 45t-65 12q-31 0 -101.5 -6t-159.5 -18.5t-184.5 -31.5t-174 -46t-130 -59.5t-51.5 -73.5z" />
<glyph unicode="U" horiz-adv-x="1136" d="M56 456v-22q0 -43 3 -91q4 -60 13.5 -121.5t29 -112t53 -82t83.5 -31.5q45 0 81.5 25.5t65.5 63.5t52.5 83t42 83t34 63.5t29.5 25.5q20 0 40.5 -29.5t45 -73.5t54.5 -96.5t69 -96.5t88 -73.5t110 -29.5q55 0 115.5 34.5t93.5 79.5l-39 37q-29 -2 -62.5 -5t-68.5 -3 t-69.5 6t-63.5 21q-51 27 -88 88t-59.5 134t-33.5 144.5t-11 118.5q0 49 20.5 91t20.5 89q0 37 -29 65.5t-68 28.5q-49 0 -68 -36q-18 -38 -22 -88q-2 -29 -2 -57q0 -22 1 -44q1 -17 1 -31q0 -28 -4 -48q-6 -28 -32.5 -95.5t-62.5 -135t-75 -118.5t-68 -51t-52 21.5 t-23 56.5v436q0 8 -8.5 12t-18.5 6t-20 2h-13q-29 0 -46 -10t-36 -49v-20t-1 -31t-1 -31v-20q0 -31 -1 -83z" />
<glyph unicode="V" horiz-adv-x="870" d="M39 711q0 -39 15.5 -80t35 -83t38.5 -84t28 -81q6 -33 12 -96.5t21.5 -127t45 -110.5t82.5 -47q25 0 45.5 14.5t39 35t33 44t24.5 41.5q6 14 33.5 69.5t59.5 120t59.5 120t35.5 69.5q6 10 23.5 36t41 56.5t49 63.5t47 61.5t35 49t13.5 26.5q0 14 -8 21.5t-19.5 9.5 t-23.5 1t-21 -1q-37 0 -69.5 -26t-59 -61.5t-48 -74.5t-36.5 -68q-10 -23 -37.5 -76t-57.5 -113.5t-56.5 -114.5t-36.5 -75q-4 -4 -19.5 -11t-19.5 -7q-23 0 -39 45t-28.5 111.5t-24.5 146.5t-27.5 148.5t-37 117.5t-52.5 56q-29 6 -47 -6.5t-28.5 -33t-15.5 -45t-5 -42.5z " />
<glyph unicode="W" horiz-adv-x="1261" d="M43 684q0 -6 1 -21.5t1 -17.5t6 -10t12.5 -18.5t12.5 -18.5t8 -10q14 -39 23.5 -97.5t17.5 -123t17.5 -131t25.5 -123t40.5 -96.5t63.5 -54q6 4 19.5 14.5t29 22.5t28.5 23.5t18 15.5q8 6 22 20.5t17 18.5q8 12 20 47t27.5 71.5t32 68.5t32.5 40q39 -31 51.5 -85 t19.5 -107.5t19.5 -93t53.5 -39.5q4 0 14 1t14 1q80 92 145.5 194.5t129 204.5t129 203.5t145.5 193.5v8q0 35 -14.5 43.5t-42.5 8.5q-31 0 -43.5 -5.5t-32.5 -35.5l-322 -512q-4 -4 -18 -18.5t-21 -18.5l-3 -1t-5 -1q-29 0 -45 36.5t-23 85t-10.5 95.5t-7.5 69q-2 8 -7 30 t-11 46.5t-11.5 46t-7.5 29.5q-16 12 -28.5 15t-28.5 3q-29 0 -47 -30.5t-32.5 -78.5t-27 -106.5t-31 -116t-44 -105.5t-64.5 -75l-39 39q-2 53 -6 97.5t-11 85.5t-17.5 83t-22.5 93q-6 25 -8 57.5t-9.5 63t-22.5 51t-46 20.5q-41 0 -63.5 -28.5t-22.5 -67.5z" />
<glyph unicode="X" horiz-adv-x="749" d="M29 -178q0 -25 12 -49.5t47 -24.5q39 0 60.5 26.5t36.5 67.5t22.5 87t20 87t32 68t55.5 27q2 0 8.5 -1t10.5 -1q27 -31 45 -53.5t38.5 -36t44 -20.5t60.5 -7q51 0 90 24.5t66 62.5t40 86t13 95q0 16 -2 36.5t-27 20.5q-37 0 -55 -29.5t-32.5 -66.5t-32 -66.5t-50.5 -29.5 q-4 0 -14 1t-14 1q-41 35 -78 72t-37 92v14t2 10l207 361q12 18 34.5 31.5l45 27t39 29.5t16.5 43q0 33 -19.5 37t-47.5 4q-70 0 -120 -45t-89 -107.5t-68 -131t-55 -115.5q-2 -4 -9.5 -10.5t-9.5 -8.5q-33 25 -53 70t-41.5 89t-48.5 75.5t-72 31.5q-29 0 -50 -3t-21 -38 q0 -4 1 -10t1 -8l170 -340q0 -2 1 -17.5t1 -23.5q0 -59 -28 -111.5t-59.5 -103.5t-59 -104.5t-27.5 -114.5z" />
<glyph unicode="Y" horiz-adv-x="774" d="M41 713q0 -47 5 -110.5t21.5 -124t50.5 -108.5t93 -63q4 2 15.5 10.5t23.5 17.5t22.5 16t14.5 11q2 2 10 7.5t18.5 12.5t18.5 12t10 7q20 16 48 54.5t53.5 77t47 68.5t29.5 30q4 0 7 -1l3 -1q4 -2 11.5 -9.5l9.5 -9.5q0 -27 3 -94t6 -143t6 -142.5t3 -93.5v-133v-133 q-12 -39 -36.5 -59.5t-56.5 -28.5t-68 -8h-68q-43 0 -73.5 12t-57.5 26.5t-50.5 27t-54.5 12.5h-8q-6 -4 -20.5 -18.5t-18.5 -20.5v-9q0 -57 45.5 -92t106.5 -54t123.5 -26.5t95.5 -7.5q59 0 112.5 30t93.5 76t63.5 102t23.5 112v108q0 66 -5 132.5t-17.5 125t-34.5 90.5 q-2 20 -4.5 74.5t-5.5 115t-6 114t-3 75.5v49v82v84v49q-6 78 -78 78q-45 0 -61 -37.5t-20 -88.5q-4 -43 -4 -84v-19v-11q0 -43 -7 -65q-14 -35 -34.5 -75t-44 -80.5t-48 -78.5t-45.5 -69q-10 -14 -28.5 -25.5t-36.5 -11.5q-14 0 -23.5 13.5t-14.5 30t-7 31.5t-2 19v437 l-39 36l-95 -94l-3 -22q-3 -23 -6 -52.5t-5 -61.5t-4 -52v-49z" />
<glyph unicode="Z" horiz-adv-x="1169" d="M-2 551q0 -27 15.5 -46.5t43.5 -19.5q2 0 9.5 1t9.5 1q51 31 102 64t103.5 60.5t107.5 45t117 17.5q0 -76 -15.5 -133.5t-49 -99.5t-87 -71.5t-127.5 -52.5q-6 -2 -22.5 -5t-34.5 -6t-34.5 -5t-22.5 -2q-2 -4 -9.5 -19.5t-9.5 -19.5v-10q0 -14 11.5 -25.5t26.5 -20.5 t30.5 -14.5t25.5 -5.5q2 0 10.5 3t18.5 6.5t18.5 6.5t10.5 3q6 2 26.5 -1t26.5 -3q0 -31 -14.5 -57.5t-30.5 -53.5t-30.5 -53.5t-14.5 -59.5q0 -23 15.5 -42t37 -35.5t46 -25.5t42.5 -9h10q4 2 20.5 7t35 11t36 12.5t21.5 6.5q66 14 134.5 33.5t138 38t140 30.5t138.5 12 q23 0 39 -10t39 -10h8q6 0 8 2l94 94l1 6t1 10q0 35 -33.5 47.5t-62.5 12.5q-76 0 -162 -23.5t-173 -53.5t-172 -53.5t-158 -23.5q-23 0 -39.5 17.5t-16.5 40.5q0 84 42 132t105.5 73.5t138.5 36t138.5 19.5t105.5 25.5t42 55.5q0 37 -31 66.5t-66 29.5t-68.5 -11.5 t-68.5 -25.5t-70.5 -25.5t-74.5 -11.5q0 45 14 86t32.5 82t33 82t14.5 88q0 31 -8 63.5t-49 32.5q-37 0 -66 -10t-55.5 -25.5t-53 -32t-55.5 -28.5q-39 -16 -105.5 -30.5t-132 -37t-113.5 -58.5t-48 -95z" />
<glyph unicode="\" horiz-adv-x="550" d="M6 653q0 -6 1 -24.5t1 -22.5q8 -8 26.5 -29.5t40 -46t40 -46t26.5 -29.5q16 -20 45 -62.5t64 -93.5t70.5 -104.5t70.5 -97.5t63.5 -71.5t45.5 -27.5q29 0 35 16.5t6 42.5q0 4 -1 18.5t-1 18.5q-14 23 -52 79t-80 119.5t-81 120t-54 79.5q-18 27 -39.5 65.5t-48 75.5 t-59.5 62.5t-70 25.5t-43 -16.5t-6 -51.5z" />
<glyph unicode="a" horiz-adv-x="991" d="M47 186q0 -33 5 -79t20.5 -89t42 -73.5t69.5 -30.5t82 42t76 92t70.5 92t62.5 42q35 0 59.5 -29.5t52 -66.5t61.5 -66.5t87 -29.5q37 0 86 11t93 33.5t74 56.5t30 79q0 8 -2 28.5t-19 20.5q-18 0 -41.5 -12t-53.5 -26.5t-64.5 -27t-77.5 -12.5q-10 0 -43 1t-43 1 q-18 12 -28.5 35t-16.5 47.5t-8.5 48t-2.5 39.5q0 14 -1 49t-1 74t1 75t1 50q-2 2 -9 9.5t-11 9.5q-14 6 -43 21t-58.5 31.5t-54 29t-32.5 12.5q-47 0 -91.5 -25.5t-85 -67.5t-74.5 -95.5t-58.5 -107.5t-39 -104.5t-14.5 -87.5zM180 121q0 31 11.5 97.5t35 134t59.5 118.5 t85 51q6 0 20.5 -7t18.5 -11v-21q0 -12 1 -27.5t1 -29.5v-16q0 -111 -53.5 -192t-139.5 -150q-29 14 -34 23.5t-5 29.5z" />
<glyph unicode="b" horiz-adv-x="776" d="M20 123q0 -23 1.5 -44.5t19.5 -39.5q31 12 52 12q11 0 19 -3q24 -9 40 -27.5t35.5 -38t60.5 -19.5q70 0 145.5 21.5t144 60.5t123 95.5t82.5 125.5q4 10 11.5 31.5t7.5 26.5q0 49 -17.5 94t-45 86t-61.5 76.5t-67 64.5q-6 0 -19 1t-27.5 2t-28 2t-19.5 1q-47 0 -83 -12 t-66.5 -33.5t-58 -50.5t-56.5 -61l-20 18q0 2 -1.5 23.5t-1.5 31.5q0 57 11.5 109.5t11.5 111.5q0 14 -1 42t-7 54.5t-20.5 46t-39.5 19.5q-23 0 -42 -29.5t-23 -48.5q1 -30 1 -59q0 -66 -6 -131q-9 -94 -21.5 -187.5t-23 -185.5t-10.5 -186zM213 172q12 53 32.5 110.5 t52.5 104.5t78 78t111 31q61 0 93 -49.5t32 -114.5q0 -47 -31.5 -87t-76.5 -69t-97.5 -45t-91.5 -16q-14 0 -31.5 1t-32.5 7t-26.5 17.5t-11.5 31.5z" />
<glyph unicode="c" horiz-adv-x="778" d="M45 354q0 -72 14.5 -125t43 -96t71.5 -81t100 -79h23q16 0 33.5 -1t34.5 -1h22q45 0 107.5 13.5t120 41t96.5 69.5t39 102q0 8 1 21t-1 26.5t-9.5 22.5t-21.5 9h-10q-37 -41 -70 -73.5t-67.5 -54t-76.5 -33t-98 -11.5q-106 0 -162.5 59.5t-56.5 164.5q0 16 1 49t8.5 65.5 t23.5 57t45 24.5q2 0 8 -1t10 -1q0 -6 6.5 -20.5t15.5 -29.5t19.5 -28.5t16.5 -15.5q0 -2 16.5 -3t26.5 -1q66 0 87 40t21 99q0 74 -48 122t-120 48q-61 0 -111 -39t-86 -97t-54.5 -124t-18.5 -119z" />
<glyph unicode="d" horiz-adv-x="1056" d="M20 121q0 -14 2 -38l1 -24l133 -133h94q2 0 27.5 15.5t58.5 36t67.5 43t55.5 38.5q23 16 40 42t35.5 50.5t39 43t51.5 18.5q27 0 43 -15.5t28.5 -40t26.5 -51t35.5 -51t56.5 -40t88 -15.5q8 0 34 1t34 1q8 6 21.5 20.5t26.5 32t21.5 34.5t6.5 28q-6 25 -21.5 32t-34.5 7 q-27 0 -49 -11.5t-49 -11.5q-35 0 -60.5 33t-41 76t-22.5 88t-7 69q0 123 19.5 242t19.5 242v18v25q0 14 -1 26.5t-1 16.5q-4 20 -27 20h-31q-29 0 -49 -14t-33.5 -38t-20.5 -50.5t-9 -50.5q0 -12 -1 -41t-1 -64q0 -33 1 -62.5t1 -41.5q-4 -14 -15.5 -17.5t-23.5 -3.5 q-18 0 -30.5 9.5t-25 21.5t-24.5 21.5t-31 9.5q-53 0 -108.5 -27t-106.5 -70t-95 -100t-77 -117.5t-52.5 -121t-19.5 -111.5zM156 143q0 49 23.5 109.5t62.5 115t88 91.5t100 37h10q4 -4 18.5 -19.5t18.5 -19.5v-21q0 -12 1 -26.5t1 -28.5v-19q0 -53 -15 -104t-46 -91 t-78 -65.5t-109 -25.5q-31 0 -53 15t-22 52z" />
<glyph unicode="e" horiz-adv-x="735" d="M-35 205q0 -4 1 -11l1 -6q2 -6 12.5 -17t22.5 -23.5t23.5 -22.5t17.5 -12q6 2 28.5 9t28.5 9h9h10q66 -59 136.5 -105t166.5 -46q111 0 193.5 43t148.5 127q0 4 1 19t1 19q0 25 -6 41.5t-35 16.5q-31 0 -64.5 -21.5t-71.5 -46t-82 -46t-95 -21.5q-20 0 -45 5t-46.5 16 t-37 29.5t-15.5 43.5q0 47 30 95t66.5 97t66.5 100.5t30 106.5q0 27 -7.5 53.5t-20.5 49t-34.5 37t-52.5 14.5q-84 0 -137 -48t-83 -119t-40 -150q-6 -49 -6 -92q0 -25 2 -48q-10 -16 -29.5 -24.5t-39 -16.5t-34 -19.5t-14.5 -35.5zM230 478.5q1 9.5 1 13.5q0 29 6.5 53 t43.5 24q16 0 33.5 -5t13.5 -36q-2 -10 -8.5 -25.5t-15.5 -30.5t-22.5 -26.5t-29.5 -11.5q-10 0 -14.5 8.5t-6.5 17.5t-1 18.5z" />
<glyph unicode="f" horiz-adv-x="688" d="M-61 446q0 -75 84 -75h2h10q10 2 39 9t37 9q4 -20 9 -59t11 -85t15.5 -95.5t25.5 -88t40 -64.5t58 -26q27 0 48.5 14.5t21.5 43.5q0 43 -15.5 85t-34 83t-33.5 85t-15 91q0 25 27.5 44t63.5 33.5t69.5 22.5t48 10t49.5 6.5t73.5 7.5t74.5 5t50 2q14 4 17.5 15t3.5 24 q0 35 -37 54t-68 19q-86 0 -172 -8t-174 -8q0 39 4 97.5t21.5 111.5t52.5 92t94 39q49 0 75 -29.5t44.5 -65.5t34.5 -65.5t47 -29.5q4 0 18.5 7t18.5 11q2 8 2 33v33q0 45 -11.5 89t-35 76.5t-61 53t-89.5 20.5q-141 0 -226 -83t-107 -222q-6 -31 -7 -59q0 -27 -2 -52.5 t-8 -49t-22 -48.5q-18 -27 -48 -33t-58 -11t-47 -17.5t-19 -51.5z" />
<glyph unicode="g" horiz-adv-x="624" d="M-203 -438q0 -53 22.5 -104.5t61.5 -90.5t89 -62.5t104 -23.5q113 0 215 36t179 102.5t122 160.5t45 211q0 88 -13.5 176t-33 176t-39 176.5t-31.5 174.5q-18 53 -53 93t-96 40q-84 0 -151.5 -46t-115 -115t-72 -151t-24.5 -155q0 -35 4 -63.5t16.5 -51t35 -35 t61.5 -12.5q43 0 86 24.5t83 58.5t73.5 69.5t58.5 58.5l39 -39l5 -38t11 -89t11.5 -105.5t9.5 -89.5v-45q0 -51 -3 -97t-15.5 -86t-39 -72.5t-75.5 -57.5q-61 -35 -135 -65.5t-148 -30.5q-49 0 -75.5 21.5t-42 53t-24 68.5t-16.5 69t-21.5 53.5t-39.5 21.5q-25 0 -38 -11.5 t-19.5 -29t-8.5 -39t-2 -39.5zM137 211q0 27 13.5 69t37 80.5t55 67.5t68.5 29q29 0 34 -17.5t5 -42.5q0 -37 -16.5 -76.5t-43 -74.5t-60 -60.5t-70.5 -33.5q-20 4 -21.5 26.5t-1.5 32.5z" />
<glyph unicode="h" horiz-adv-x="768" d="M53 47q0 -39 18.5 -44t53.5 -5q29 0 60.5 34t64.5 86t65.5 116.5t61.5 126t53.5 111.5t40.5 77q10 16 16.5 18t22.5 2q10 0 21.5 -2t15.5 -18q2 -18 4 -64.5t5 -97.5t6 -96t3 -64q1 -20 1 -39q0 -28 -2 -54q-1 -13 -1 -24q0 -26 5 -48q7 -30 31 -47t81 -17 q41 0 67.5 14.5t26.5 65.5q0 20 -11 37.5t-25.5 34t-26 35t-13.5 42.5q-1 14 -1 34t1 45q2 50 3 110v23q0 49 -3 97q-4 60 -20 109t-48 81t-83 32q-35 0 -66.5 -22.5t-58.5 -54.5t-48.5 -63.5t-35.5 -50.5q-18 -25 -30.5 -55.5t-26 -63t-31 -61.5t-43.5 -47 q-16 18 -18.5 30.5t-2.5 32.5q0 119 20.5 234t20.5 233q0 8 -1 37t-1 39q-10 31 -29.5 35t-43.5 4h-33t-27 -20q0 -35 -3 -121t-6 -182.5t-5 -182.5t-4 -121v-20v-16q0 -2 3 -10.5t6 -18.5t6 -18.5t3 -10.5q0 -55 -19.5 -109.5t-19.5 -107.5z" />
<glyph unicode="i" horiz-adv-x="256" d="M45 84q0 -23 26.5 -49.5t49.5 -26.5q49 0 63.5 22.5t14.5 61.5q0 25 -6.5 46.5t-13.5 42t-13 43t-8 48.5q0 18 -1 64.5t-1 97.5t1 96t1 64q-4 25 -22.5 41t-43.5 16h-10q-8 -4 -22.5 -10t-14.5 -8v-549zM98 911q0 -25 11.5 -39t29 -21t39 -10t41.5 -3q12 0 23.5 1t20.5 6 t12.5 17t-3.5 35q-4 12 -18 31.5t-32.5 38t-38 32t-36.5 13.5q-16 0 -25 -11.5t-14.5 -28t-7.5 -33t-2 -28.5z" />
<glyph unicode="j" horiz-adv-x="448" d="M-135 -393q0 -49 28.5 -93t71.5 -76t94.5 -50.5t96.5 -18.5q90 0 145 42t115 112v20t1 30.5t1 33.5v20q0 96 -18.5 190.5t-40 187.5t-40 188.5t-18.5 191.5q0 47 10.5 78t10.5 72q0 33 -12.5 41t-45.5 8q-23 0 -41 -2t-35 -19q-10 -57 -15 -90t-5 -80q0 -51 10 -100 t10 -100v-9q-4 -10 -10 -31.5t-8 -25.5l-266 -340q-29 -37 -34 -87t-5 -93zM-2 -342q0 49 23.5 96t57.5 90t74 82t72 70l21 -39q0 -2 5 -41t11 -93t11.5 -111.5t9.5 -94.5q0 -2 1 -14.5t1 -16.5q0 -25 -12.5 -38t-32 -19t-41 -7t-39.5 -1q-66 0 -114 30.5t-48 106.5z M111 885q0 -80 77 -80q35 0 56.5 16.5t21.5 52.5q0 37 -25.5 63t-60.5 26q-37 0 -53 -21.5t-16 -56.5z" />
<glyph unicode="k" d="M43 -55q8 -39 29.5 -68t66.5 -29q23 0 34 13.5t16.5 33t6.5 41t1 35.5q0 45 -11.5 84t-11.5 80q0 78 76 78q68 0 136.5 -36t133 -80t121.5 -79.5t104 -35.5q18 0 34 13t28 31.5t20.5 38t12.5 31.5q-12 18 -27.5 26.5t-33 9.5t-36 0t-36.5 3q-10 2 -30 13.5t-38 25.5 t-31.5 25.5t-15.5 11.5l-41 20.5l-72 36t-72.5 35.5t-41.5 21q-23 14 -31 25t-8 32q0 4 1 10t1 8q23 12 61.5 35t83.5 51.5t90 62.5t82 70.5t59.5 74.5t22.5 77q0 20 -5 44t-32 24q-49 0 -77.5 -22.5t-48 -55.5t-38 -70t-47.5 -63q-6 -4 -30.5 -20.5t-53 -36t-54.5 -36 t-32 -20.5q-4 -2 -15 -10t-23.5 -18.5t-23.5 -18.5t-14 -10h-10h-10q-4 4 -11 10t-7 8v457q0 29 -25 34t-41 5q-23 0 -40 -5t-28 -34q-2 -20 -3 -64.5t-3 -98.5t-4 -113.5t-3 -114t-3 -97.5t-2 -63v-217v-219z" />
<glyph unicode="l" horiz-adv-x="296" d="M51 727q0 -35 1 -69.5t1 -63.5v-31q0 -25 3 -87t6.5 -131t5.5 -131t4 -87q20 -55 44.5 -85t84.5 -30q8 0 21.5 -1t26.5 1t22.5 8.5t9.5 22.5v8q-43 63 -57.5 93t-19.5 52.5t-10.5 51t-27.5 88.5v567q4 4 11 17.5t13.5 29t10.5 28.5t4 19q0 4 -8.5 23.5t-22.5 41t-30.5 37 t-32.5 11.5q-18 -4 -29.5 -21.5t-18 -39t-8.5 -42t-2 -28.5v-27q0 -23 -1 -54.5t-1 -63.5v-52v-55z" />
<glyph unicode="m" horiz-adv-x="1040" d="M47 53q0 -14 10.5 -31.5t24.5 -32t30.5 -23.5t28.5 -9q45 0 71 40t43 101.5t29.5 131t28 131t40 101.5t67.5 40q0 -102 -7 -200.5t-7 -201.5q0 -10 1 -41.5t1 -42.5q16 -12 28.5 -16t28.5 -4q23 0 50.5 32.5t58 84t64.5 113t65.5 118.5t62.5 102.5t57 61.5l29 -19v-415 q0 -18 13.5 -32.5t33 -25t38.5 -15.5t32 -5q31 0 38 19.5t7 45.5v31q0 2 -3 13.5t-6.5 23.5t-6.5 23.5t-3 15.5q-2 18 -8 79.5t-12 134.5t-11.5 140.5t-7.5 100.5v43q0 33 -4 65.5t-17 57t-44 24.5q-16 0 -36.5 -11t-31.5 -28l-207 -397q-2 -2 -7 -3t-9 -1q-12 0 -24.5 3 t-16.5 19q2 12 2 41v62v63q0 31 -2 43q-4 20 -12 50t-23.5 57.5t-37 46t-50.5 18.5t-50 -18.5t-39.5 -43t-35 -50t-37.5 -41.5q-14 10 -25 29.5t-23.5 38t-28 32.5t-35.5 14q-23 0 -35 -8t-23 -31q6 -94 8 -164v-30q0 -54 -4 -106q-6 -66 -16 -133.5t-26 -153.5 q0 -2 -3.5 -10.5t-6.5 -18.5t-6 -18.5t-3 -10.5z" />
<glyph unicode="n" horiz-adv-x="751" d="M57 2q0 -41 17.5 -61.5t58.5 -20.5q37 0 66.5 28.5t54.5 74t47.5 100.5t46 107.5t50 96.5t59.5 68q25 -10 32 -46t10 -85t6 -103.5t16.5 -99.5t44 -74.5t87.5 -29.5q29 0 50.5 4t21.5 39q0 4 -1 10l-1 6q-2 4 -13.5 15.5t-24.5 24t-24.5 22.5t-13.5 14q-6 8 -17.5 62.5 t-23.5 119t-22.5 122t-12.5 75.5q-2 8 -3 29.5t-1 46.5t1 46t3 30q-18 16 -37.5 18t-41.5 2q-39 0 -67 -29.5t-49.5 -73.5t-40 -96.5t-35.5 -96.5t-36.5 -73.5t-44.5 -29.5q-23 0 -26 23.5t-3 39.5q0 80 10.5 160t10.5 160q0 29 -11.5 60.5t-45.5 31.5q-23 0 -36.5 -16.5 t-20.5 -39t-12 -44t-7 -33.5q1 -40 1 -78t-1 -75q-2 -73 -7 -143.5t-9.5 -141t-4.5 -146.5z" />
<glyph unicode="o" horiz-adv-x="776" d="M39 150q0 -29 8 -73t26.5 -85t48.5 -71t71 -30h208q49 39 108.5 76t111 81t86 99.5t34.5 131.5q0 37 -16 84t-44 97t-64.5 98t-77.5 85t-84 60.5t-82 23.5q-23 0 -37 -10t-25.5 -24.5t-21.5 -32t-21 -31.5q-47 -61 -89 -112.5t-72.5 -105t-49 -115.5t-18.5 -146zM172 117 q0 147 57.5 249.5t190.5 168.5l7 1t11 1q37 0 68 -27t54.5 -63.5t36.5 -76.5t13 -67q0 -63 -29.5 -118.5t-76.5 -95.5t-106.5 -62.5t-121.5 -22.5q-47 0 -75.5 28t-28.5 85z" />
<glyph unicode="p" horiz-adv-x="665" d="M41 555q0 -10 2 -30.5t2 -22.5l57 -19q10 20 24.5 46t33 49.5t42 40t52.5 16.5q41 0 88 -25.5t87 -64.5t66.5 -85t26.5 -87q0 -33 -17.5 -73t-47 -76t-65.5 -59.5t-73 -23.5q-29 0 -37 22.5t-9 56.5v13q0 28 3 61q3 18 3 35q0 20 -3 39q-6 33 -22 55.5t-57 22.5 q-35 0 -55.5 -16t-20.5 -59v-721q0 -20 6 -52t20.5 -63t36 -53.5t49.5 -22.5q35 0 38 23.5t3 52.5q0 72 -11 141.5t-11 145.5v26v39q0 20 1 40t1 26q23 39 61.5 63.5t83.5 45t90.5 44t82 58.5t59 87t22.5 132q0 70 -39 136.5t-99 117.5t-132 83t-139 32q-100 0 -151.5 -50.5 t-51.5 -146.5z" />
<glyph unicode="q" horiz-adv-x="837" d="M8 258q0 -66 41 -103.5t111 -37.5q72 0 126 41t104 90t100.5 90t115.5 41q0 -20 2 -70.5t4 -107t3 -106.5t1 -70q0 -12 -6 -62.5t-12 -109t-12 -108.5t-8 -62v-41q0 -35 15 -54.5t50 -19.5q41 0 76 28.5t49 67.5q-4 8 -9 29.5t-11.5 46t-11.5 46t-7 30.5v8v10 q2 41 5 107.5t6 130t5.5 109.5t2.5 50q4 61 21 114.5t17 115.5q0 14 -3 36.5t-10 44t-22.5 36t-39.5 14.5q-29 0 -48.5 -15.5t-38 -33t-38 -32.5t-45.5 -15h-11q-6 0 -10 2q-6 31 -12 61.5t-18.5 55t-35 40t-61.5 15.5q-80 0 -150.5 -35t-122.5 -92.5t-82 -132t-30 -152.5z M141 289q0 37 17.5 77t45 73.5t63.5 55t73 21.5q14 0 33.5 -2t35 -8t26.5 -17.5t11 -29.5q0 -35 -30.5 -72t-73.5 -67.5t-88 -50t-74 -19.5q-39 0 -39 39z" />
<glyph unicode="r" horiz-adv-x="800" d="M45 76q0 -41 10.5 -53.5t50.5 -12.5q18 0 54.5 33t79.5 85t92 114.5t95 122t86 107.5t65 71q8 0 32.5 1t32.5 1q25 0 42 -7.5t32.5 -14.5l31 -14t35.5 -7q29 0 35 16.5t6 42.5q0 63 -44 99t-105 36q-78 0 -133.5 -41t-101.5 -97t-90 -114.5t-95 -91.5q-10 -4 -38 9.5 t-38 13.5q0 2 -1 -2t1 0q0 4 3 20.5t6.5 34.5t6.5 35.5t3 21.5v21q0 33 -26 63.5t-60 30.5q-8 0 -9 -2q-6 -4 -20 -18.5t-18 -18.5q1 -31 1 -60q1 -36 -1 -70q-2 -60 -7.5 -118.5t-9.5 -116t-4 -120.5z" />
<glyph unicode="s" horiz-adv-x="739" d="M35 506q0 -61 54 -100t127 -71t145.5 -63.5t109.5 -76.5q-8 -16 -32.5 -32t-55.5 -29t-59.5 -22.5t-42.5 -11.5q-2 0 -10.5 2t-17.5 6.5t-17.5 7.5t-10.5 3q-4 0 -15 1t-17 1q-35 0 -59.5 -25.5t-24.5 -60.5q0 -43 32.5 -55.5t73.5 -12.5q25 0 68 9.5t93 25.5t100 38.5 t92 51.5t68 61.5t26 69.5t-33 64.5t-81 49t-105.5 41t-105.5 41t-81 46t-33 59.5q0 33 21.5 54.5t53.5 34t66.5 16.5t63.5 4q37 0 62.5 -6t46 -20.5t40 -37t46.5 -53.5q4 0 14 -1t14 -1q41 0 45 19.5t4 58.5q0 49 -18 82t-49 52t-72 28.5t-86 9.5q-43 0 -117.5 -20.5 t-146.5 -55.5t-124 -82t-52 -100z" />
<glyph unicode="t" horiz-adv-x="620" d="M20 559q0 -25 15.5 -36t37 -16t44.5 -5h39l18 -39q0 -2 -1 -21.5t-4 -47t-7 -55.5t-6 -46q-2 -6 -8.5 -28.5t-10.5 -28.5l37 -207q2 -18 13.5 -27.5t24.5 -12.5t27.5 -2t26.5 1q41 0 60.5 4t19.5 47q0 20 -12 38.5t-26.5 41t-27 52.5t-12.5 73q0 6 1 34.5t4 66.5t9.5 80 t14.5 78t19.5 59.5t27.5 23.5h248q8 0 12 9t6 21.5t2 22.5v14v13q0 10 -1 19t-6 17.5t-13 8.5h-227q0 33 -9.5 66.5t-12.5 66.5t8 61.5t50 50.5q-4 31 -34.5 54.5t-61.5 23.5q-16 0 -35.5 -11t-36 -28.5t-28.5 -38t-12 -38.5q0 -4 3 -14.5t6 -24t7 -24.5t4 -13v-64 q0 -55 -29.5 -83.5t-66.5 -47t-67 -36t-30 -52.5z" />
<glyph unicode="u" horiz-adv-x="862" d="M23 481q0 -2 3 -10t6 -18.5t6 -18.5t3 -10q1 -14 1 -32t-1 -39q-2 -42 -2 -89t5 -92t21.5 -82t47 -59.5t82.5 -22.5q57 0 101 42t79 92.5t66.5 92t66.5 41.5q20 0 39.5 -41.5t45 -94t60.5 -97.5t88 -53q25 -4 48.5 5t42 25.5t30.5 38t12 43.5v21q-23 2 -52 6t-59 14.5 t-51.5 27.5t-27.5 46q-2 10 -7 44t-11.5 73t-11.5 75.5t-7 53.5v26q0 59 10.5 119t10.5 119q0 10 -1 39t-1 37q-16 16 -36 18t-42 2q-25 0 -44.5 -4t-29.5 -35q7 -40 7 -78q0 -26 -3 -51q-8 -63 -30.5 -122.5t-55.5 -115t-70 -106.5q-4 -6 -17 -30.5t-31.5 -52t-40 -49 t-42.5 -21.5q-33 0 -46 28.5t-16 68.5q-2 20 -1.5 40t1.5 40q3 40 3 62v21q0 14 1 27.5t1 23.5v12q0 4 3 21.5t6 36t6.5 36t3.5 21.5q0 16 -8.5 36.5t-20.5 38t-28.5 29t-35.5 11.5q-12 0 -23 -2t-18 -19q0 -8 -2 -29.5t-5 -46t-6 -46t-5 -29.5q0 -2 -3 -10.5t-6 -18.5 t-6 -18.5t-3 -10.5z" />
<glyph unicode="v" horiz-adv-x="931" d="M23 569q43 -68 71.5 -136t51 -139t41.5 -143.5t44 -148.5q10 -29 26.5 -35t39.5 -6q4 0 14.5 1t14.5 1q76 68 138 150t116.5 168t106.5 174t112 172q16 8 36.5 20t39 27.5t31 35t12.5 42.5q0 20 -11.5 32.5t-28 20.5t-36 11t-37.5 3q-12 0 -36 -28.5t-54.5 -73.5 t-64.5 -99.5t-64.5 -105.5t-54 -92t-35.5 -60q-6 -10 -24.5 -37.5t-40 -57t-40 -56.5t-26.5 -37q-4 -2 -10.5 -3t-10.5 -1q-29 0 -39 25.5t-16 54.5q-6 18 -17.5 66t-23.5 102.5t-22.5 103.5t-12.5 68q-10 31 -35.5 64.5t-60.5 33.5q-18 0 -36 -12t-30 -29.5t-20 -38 t-8 -37.5z" />
<glyph unicode="w" horiz-adv-x="1296" d="M55 614q0 -31 7.5 -56.5t17.5 -49t19.5 -48t15.5 -54.5q10 -59 12 -126t9 -132.5t26.5 -126t64.5 -109.5q4 0 14.5 -2t14.5 -2q35 0 68.5 32.5t62.5 82t54.5 106.5t46 106.5t36 82t25.5 32.5q25 0 49.5 -48t52 -109.5t59 -121t68.5 -83.5q10 10 38 36.5t57.5 57.5 t56 57.5t37.5 38.5q4 4 11 18.5t7 18.5q14 18 49 61t74 91.5t75 91.5t50 59q2 4 16.5 17.5t30.5 30t30.5 29.5t16.5 17q0 2 1 14.5t1 20.5q0 41 -10 52.5t-51 11.5q-25 0 -62 -38t-82 -95.5t-93 -125t-92 -125t-82 -95t-60 -37.5q-20 0 -32.5 12t-19 30.5t-8.5 38t2 33.5 l-94 379l-3 1t-5 1q-49 0 -73.5 -21.5t-35 -54t-16.5 -68.5t-18 -65q-16 -33 -41 -84t-49.5 -99t-42 -83t-19.5 -37l-39 -39l-37 39q-2 16 -6 61.5t-12 102.5t-20.5 118.5t-31 113t-43 84t-57.5 32.5q-35 0 -38 -23.5t-3 -52.5z" />
<glyph unicode="x" horiz-adv-x="595" d="M23 -10q0 -37 26.5 -53.5t61.5 -16.5q4 0 13 1t13 1l7.5 22.5t11.5 34t12 34t8 22.5q0 2 8.5 18.5t20.5 31.5t24.5 24.5t22.5 1.5l113 -95q2 0 7 -1t9 -1q18 0 45 10.5t51.5 28t42 38t17.5 38.5q0 33 -36 37t-79 9t-79 25.5t-36 82.5q0 49 42 117.5t91 139t91 134 t42 100.5q0 27 -9 43.5t-38 16.5q-43 0 -72.5 -30t-53 -75t-43 -97t-39 -97.5t-42 -75t-53.5 -29.5q-37 0 -46 29.5t-14 66.5t-19.5 67t-63.5 30q-23 0 -40 -16.5t-17 -41.5q0 -33 21.5 -76t46 -86t46 -78.5t21.5 -52.5q0 -39 -21.5 -73.5t-46 -68.5t-46 -68.5t-21.5 -71.5z " />
<glyph unicode="y" horiz-adv-x="751" d="M25 -451q0 -4 1 -19t1 -19q18 -20 42.5 -49t55.5 -56t65.5 -46t71.5 -19q135 0 222 62t137.5 159.5t70 213t19.5 224.5v45t-1 56.5t-1 48.5v24q0 16 -7.5 57t-19.5 94.5t-29.5 110t-39 103.5t-45 77.5t-50.5 30.5q-18 0 -36.5 -37t-38 -91t-43 -118.5t-51 -119t-60.5 -91 t-74 -36.5q-4 0 -10 8t-8 12q-5 19 -5 48q0 10 1 21q1 20 1 39q0 25 -2 49q-2 44 -15 76.5t-48 32.5q-31 0 -48.5 -10t-35.5 -49q0 -10 -1 -42t-1 -42q0 -35 4 -89t19.5 -104.5t44 -86t77.5 -35.5q4 0 13.5 1t13.5 1l22.5 22.5t35 34.5t35 34.5l22.5 22.5q14 14 41.5 59.5 t57.5 92.5t54.5 86t34.5 45l39 -37l3 -26q3 -27 6 -64t6 -75t3 -62v-17q0 -12 1.5 -29.5t1.5 -33.5v-27q0 -80 -8.5 -174t-39 -175t-91 -135t-167.5 -54q-47 0 -77.5 21.5t-52 46t-39 46t-37.5 21.5q-29 0 -35 -16.5t-6 -41.5z" />
<glyph unicode="z" horiz-adv-x="974" d="M27 285q0 -25 18 -37t41 -21q8 2 29.5 8.5t45 12.5t45 11t32.5 5h18t26.5 -2t27 -3t18.5 -1q0 -31 -11.5 -56.5t-26 -50t-25.5 -50t-11 -58.5q0 -35 16.5 -58.5t42 -37t57 -19.5t62.5 -6q27 0 74 4t104.5 12.5t115.5 20.5t105.5 28.5t78 39t30.5 49.5q0 33 -34 54.5 t-64 21.5q-47 0 -90 -15.5t-87 -33t-89.5 -33t-92.5 -15.5q-23 0 -43 10.5t-32 28.5q4 8 15 29.5t23.5 46.5t22.5 46.5t14 29.5q23 49 61 74.5t83 36t90 13.5t82 10t60.5 23.5t23.5 53.5q0 31 -34 52t-63 21h-18q-4 0 -15.5 -3t-23.5 -6t-23.5 -6t-13.5 -3t-5 -1t-5 -1 q-18 0 -24.5 12.5t-6.5 26.5q0 4 1 11l1 7l95 191q6 12 -4.5 28.5t-28 32t-37 25.5t-31.5 10q-23 0 -77 -12.5t-123.5 -34t-143.5 -49t-135.5 -58t-101 -61.5t-39.5 -59q0 -35 16 -63t53 -28q6 0 16 1l11 2q2 2 13 10t24.5 18t24 18.5t14.5 10.5q14 8 52 27.5t80 41t80 40 t54 24.5q4 0 18.5 1t18.5 1q25 0 41 -5t16 -34q0 -35 -14.5 -64.5t-36 -56t-49 -48t-51.5 -40.5q-31 -23 -93.5 -29t-127 -16t-112.5 -32.5t-48 -73.5z" />
<glyph unicode="~" horiz-adv-x="782" d="M41 868q0 -76 78 -75q39 0 55 35.5t29.5 79.5t36 80t77.5 36h9l133 -133q4 -2 26.5 -4t32.5 -2q35 0 75 16.5t76 43t61.5 61t31.5 73.5q4 29 -22.5 44.5t-47.5 15.5q-25 0 -42 -15.5t-31.5 -33t-32 -33t-41.5 -15.5q-37 0 -58.5 24t-40 53.5t-40 53t-58.5 23.5 q-23 0 -42 -2t-36 -18l-209 -209q-14 -14 -17 -46.5t-3 -52.5z" />
<glyph unicode="&#xa2;" horiz-adv-x="931" d="M8 430q0 -10 30 -32.5t76 -51.5t101 -58.5t106.5 -56t90.5 -44t53 -21.5q6 -2 27.5 -5t48 -6t48 -5.5t27.5 -4.5q2 0 10.5 -3t18.5 -6t18.5 -6t10.5 -3h10q35 0 60.5 30.5t25.5 63.5q0 25 -9 48.5t-20.5 46t-20.5 46t-9 50.5q0 61 29.5 76.5t65.5 18.5t65.5 11t29.5 53 q0 8 -2 33t-16 25h-172l-29 28v267q0 16 -10 27.5t-24.5 18.5t-31 10t-28.5 3q-39 0 -44 -27.5t-5 -58.5q0 -57 11 -111.5t11 -111.5q0 -12 -2 -21.5t-18 -13.5q-27 -2 -76 -8t-108.5 -16.5t-121 -27t-112.5 -39t-83 -51t-32 -67.5zM254 432q0 27 30.5 42t73.5 23.5t86 9.5 t68 1q6 0 24.5 -1t22.5 -1q23 -37 32 -74t9 -80q0 -37 -5 -56.5t-46 -19.5q-23 0 -72 13.5t-98 35t-87 49t-38 58.5z" />
<glyph unicode="&#xd2;" horiz-adv-x="479" d="M35 1614q0 -96 52 -170t120 -133l76 75q29 -16 48 -18t48 -2q25 0 41 5t16 34q0 4 -1 11l-1 7q0 2 -6 10.5t-13 18.5t-13.5 18.5t-6.5 10.5q-6 25 -8 68.5t-9 87.5t-25.5 77t-59.5 33q-43 0 -55.5 -32t-12.5 -75q0 -27 10.5 -51t10.5 -53v-20q0 -12 -2 -24.5t-8.5 -22 t-18.5 -9.5q-37 0 -46 30t-15 66.5t-20.5 66.5t-59.5 30q-41 0 -41 -39z" />
<glyph unicode="&#xd3;" horiz-adv-x="579" d="M37 1451q2 -50 2 -87v-76q4 -16 19.5 -18t27.5 -2q20 0 34.5 2t33.5 18q2 39 14 78t26.5 77t24.5 75.5t10 76.5q0 12 -9 34t-23.5 41.5t-32 30.5t-31.5 5q-45 -18 -65.5 -60t-26.5 -93.5t-4 -101.5zM340 1325q0 -33 8 -45t43 -12q27 0 55.5 44t52 101t39 112.5t15.5 78.5 q0 35 -24.5 41t-53.5 6q-55 0 -84 -35t-40 -86t-11 -107v-98z" />
<glyph unicode="&#x2000;" horiz-adv-x="873" />
<glyph unicode="&#x2001;" horiz-adv-x="1747" />
<glyph unicode="&#x2002;" horiz-adv-x="873" />
<glyph unicode="&#x2003;" horiz-adv-x="1747" />
<glyph unicode="&#x2004;" horiz-adv-x="582" />
<glyph unicode="&#x2005;" horiz-adv-x="436" />
<glyph unicode="&#x2006;" horiz-adv-x="291" />
<glyph unicode="&#x2007;" horiz-adv-x="291" />
<glyph unicode="&#x2008;" horiz-adv-x="218" />
<glyph unicode="&#x2009;" horiz-adv-x="349" />
<glyph unicode="&#x200a;" horiz-adv-x="97" />
<glyph unicode="&#x202f;" horiz-adv-x="349" />
<glyph unicode="&#x205f;" horiz-adv-x="436" />
<glyph unicode="&#x25fc;" horiz-adv-x="829" d="M0 0v829h829v-829h-829z" />
</font>
</defs>
</svg>
